<?xml version="1.0" encoding="UTF-8" standalone="no"?>
<!-- Created with Inkscape (http://www.inkscape.org/) -->

<svg
   width="51.080959mm"
   height="51.221729mm"
   viewBox="0 0 51.080961 51.221731"
   version="1.1"
   id="svg1"
   xml:space="preserve"
   xmlns="http://www.w3.org/2000/svg"
   xmlns:svg="http://www.w3.org/2000/svg"><defs
     id="defs1" /><g
     id="layer1"
     transform="translate(-76.801261,-118.27248)"><g
       id="g34"
       transform="translate(-0.57963376,-0.28981746)"><path
         style="fill:#d8d9db"
         d="m 97.196352,170.88268 c -1.47947,-0.30168 -2.854928,-0.69987 -4.222208,-1.22231 -0.813765,-0.31094 -0.974749,-0.38123 -0.981422,-0.42851 -0.0032,-0.0225 0.10441,-1.22322 0.239073,-2.66832 0.134664,-1.44509 0.240535,-2.63842 0.235269,-2.65184 -0.0073,-0.0186 -4.193119,-2.89713 -4.318757,-2.96992 -0.01617,-0.009 -0.98814,0.46167 -2.416114,1.17088 -1.313987,0.65259 -2.40155,1.18654 -2.416806,1.18654 -0.05092,0 -0.86137,-0.88391 -1.375371,-1.50004 -0.57048,-0.68383 -1.252797,-1.5983 -1.757161,-2.35502 -0.357086,-0.53575 -0.668071,-1.04665 -0.661463,-1.08669 0.0036,-0.0217 0.790538,-0.92987 1.748794,-2.01816 0.958255,-1.08829 1.749024,-1.99088 1.757263,-2.00576 0.01121,-0.0203 -1.632678,-4.71616 -1.73108,-4.94496 -0.01617,-0.0376 -0.289449,-0.0876 -2.645889,-0.48426 -1.998702,-0.33642 -2.633774,-0.45041 -2.652575,-0.47612 -0.04407,-0.0603 -0.186514,-1.36993 -0.245692,-2.25902 -0.03845,-0.57762 -0.05025,-1.81876 -0.02339,-2.45937 0.02915,-0.69529 0.0834,-1.45833 0.105236,-1.48016 0.0085,-0.009 1.180014,-0.27715 2.603329,-0.59696 1.423315,-0.31981 2.598997,-0.59198 2.612627,-0.60482 0.01896,-0.0179 1.430195,-4.7387 1.493767,-4.99691 0.01214,-0.0493 -0.05042,-0.12016 -0.623286,-0.70573 -0.350231,-0.35801 -1.050857,-1.07435 -1.556948,-1.59189 -0.506091,-0.51754 -1.057564,-1.08092 -1.225497,-1.25196 -0.167932,-0.17104 -0.305331,-0.32783 -0.305331,-0.34842 0,-0.0659 0.505481,-0.96658 0.884172,-1.57541 0.446101,-0.71721 0.826868,-1.2759 1.319329,-1.9358 0.566224,-0.75875 1.260652,-1.59286 1.326116,-1.59286 0.02173,0 1.111053,0.46298 2.42072,1.02885 1.309667,0.56587 2.408106,1.03851 2.440974,1.05032 0.05348,0.0192 0.07258,0.0115 0.181818,-0.0737 0.06713,-0.0524 0.988368,-0.757 2.047192,-1.56583 1.058823,-0.80883 1.945919,-1.49124 1.971324,-1.51647 l 0.04619,-0.0459 -0.382725,-2.58769 c -0.210499,-1.42322 -0.382889,-2.61746 -0.383089,-2.65386 -3.55e-4,-0.0644 0.0086,-0.0705 0.338358,-0.22889 0.890918,-0.42795 2.31,-0.99907 3.224812,-1.29785 0.465505,-0.15203 2.091592,-0.57809 2.229955,-0.58427 l 0.09296,-0.004 1.346224,2.27759 c 0.740424,1.25267 1.353936,2.29035 1.36336,2.30596 0.0142,0.0235 0.449135,0.0188 2.53943,-0.0274 1.38726,-0.0307 2.57524,-0.0627 2.63994,-0.0712 l 0.11765,-0.0154 0.13011,-0.24593 c 0.0716,-0.13527 0.62352,-1.18905 1.22657,-2.34175 0.60304,-1.15269 1.1099,-2.10979 1.12634,-2.12689 0.0348,-0.0362 0.25005,-0.002 1.025,0.16299 1.49254,0.3177 3.21841,0.8532 4.55081,1.41201 l 0.22994,0.0964 v 0.0803 c 0,0.0442 -0.10107,1.21683 -0.2246,2.60586 -0.12353,1.38902 -0.22413,2.56206 -0.22357,2.60674 l 0.001,0.0812 2.15797,1.46492 c 1.18689,0.80571 2.17109,1.46766 2.18712,1.471 0.016,0.003 1.09334,-0.52836 2.39402,-1.18156 1.30067,-0.6532 2.38005,-1.18764 2.39862,-1.18764 0.0186,0 0.13391,0.10345 0.25633,0.2299 0.98986,1.0224 2.04775,2.33846 2.8751,3.57677 0.23157,0.3466 0.65736,1.02282 0.67579,1.07327 0.008,0.0212 -0.006,0.0609 -0.0337,0.0962 -0.0258,0.0331 -0.81096,0.93592 -1.74479,2.00628 -0.93383,1.07036 -1.70224,1.95742 -1.70757,1.97123 -0.0109,0.0282 1.73814,4.9246 1.77082,4.95735 0.0115,0.0115 1.19662,0.21563 2.63358,0.45355 1.57301,0.26045 2.62347,0.44358 2.63982,0.46022 0.0298,0.0303 0.0895,0.42937 0.15609,1.04345 0.16772,1.54584 0.1952,3.07316 0.0858,4.76904 -0.0164,0.25475 -0.0329,0.38129 -0.0517,0.39631 -0.0152,0.0121 -0.72407,0.17976 -1.57534,0.3725 -0.85126,0.19275 -2.01941,0.458 -2.59588,0.58945 l -1.04813,0.239 -0.73148,2.50013 c -0.40232,1.37507 -0.732,2.51898 -0.73262,2.54203 -0.001,0.0469 -0.0502,-0.004 2.18619,2.26069 0.85579,0.86652 1.55598,1.58771 1.55598,1.60265 0,0.0421 -0.40326,0.76924 -0.71633,1.29168 -0.64458,1.07569 -1.32021,2.0514 -2.05084,2.96176 -0.33853,0.42179 -0.70982,0.85628 -0.7399,0.86582 -0.0184,0.006 -1.13477,-0.4611 -2.48085,-1.03763 -1.34609,-0.57653 -2.45462,-1.04559 -2.46341,-1.04236 -0.009,0.003 -0.95041,0.72712 -2.09249,1.60865 -1.28279,0.99014 -2.0765,1.6164 -2.0765,1.63842 0,0.0196 0.17327,1.18831 0.38503,2.59712 0.21177,1.40881 0.38503,2.59226 0.38503,2.62989 0,0.0672 -0.006,0.0713 -0.3369,0.23093 -1.54743,0.74646 -3.42022,1.41734 -5.12302,1.8352 -0.37703,0.0925 -0.37997,0.0929 -0.41939,0.051 -0.0218,-0.0232 -0.61531,-1.01415 -1.31885,-2.20213 -0.70354,-1.18798 -1.31191,-2.21157 -1.35194,-2.27465 l -0.0728,-0.11468 -0.38909,0.0133 c -0.72341,0.0248 -1.06957,0.0346 -2.73135,0.0772 -0.91176,0.0234 -1.7661,0.0483 -1.89853,0.0554 l -0.24078,0.0128 -0.0729,0.13155 c -0.0401,0.0724 -0.597692,1.14202 -1.239082,2.37705 -1.110136,2.13762 -1.169058,2.24573 -1.226415,2.25007 -0.03314,0.002 -0.358648,-0.0563 -0.723354,-0.13066 z m 6.485958,-14.36169 c 3.77342,-0.40235 7.08513,-2.50143 9.03648,-5.72763 0.92216,-1.52463 1.47312,-3.20637 1.66907,-5.09468 0.0444,-0.42759 0.0373,-1.82661 -0.0114,-2.26689 -0.16595,-1.49873 -0.54549,-2.80458 -1.19342,-4.10607 -0.6042,-1.21367 -1.29402,-2.17164 -2.26464,-3.145 -0.73871,-0.7408 -1.43285,-1.28284 -2.35328,-1.83762 -0.36722,-0.22134 -1.17707,-0.62184 -1.59587,-0.78922 -2.06478,-0.82521 -4.24341,-1.06915 -6.40387,-0.71703 -2.156591,0.35148 -4.17041,1.2902 -5.850271,2.72703 -0.344639,0.29478 -1.08385,1.03654 -1.361917,1.36663 -1.30888,1.5537 -2.174406,3.33868 -2.582099,5.32506 -0.245844,1.19781 -0.303218,2.53639 -0.16087,3.75321 0.511826,4.37516 3.371869,8.10961 7.452479,9.73092 1.17487,0.4668 2.434528,0.7425 3.796788,0.83099 0.34041,0.0221 1.42732,-0.008 1.82286,-0.0497 z"
         id="path42" /><path
         style="fill:#bcc2cc"
         d="m 97.260523,170.88219 c -1.549202,-0.3178 -2.891759,-0.70605 -4.299465,-1.24337 -0.654018,-0.24963 -0.913491,-0.3597 -0.937453,-0.39768 -0.01368,-0.0217 0.02028,-0.47091 0.101751,-1.34588 0.215744,-2.31713 0.330752,-3.58593 0.344408,-3.79962 l 0.01332,-0.20833 -0.156732,-0.10963 c -0.959559,-0.67113 -4.177369,-2.85231 -4.207912,-2.85231 -0.02205,0 -1.102445,0.52926 -2.400874,1.17612 -1.29843,0.64687 -2.376384,1.17617 -2.395455,1.17622 -0.03244,9e-5 -0.490431,-0.47965 -0.898209,-0.94087 -0.791541,-0.89528 -1.621452,-1.98489 -2.312989,-3.03679 -0.412761,-0.62785 -0.575578,-0.89762 -0.568128,-0.94133 0.0036,-0.021 0.789806,-0.92789 1.747164,-2.01526 0.957358,-1.08737 1.747806,-1.99053 1.756553,-2.00702 0.0096,-0.0181 -0.334158,-1.01639 -0.864381,-2.51047 -0.802806,-2.26218 -0.884925,-2.48197 -0.933024,-2.49723 -0.02901,-0.009 -1.203007,-0.20943 -2.60889,-0.44495 -1.405882,-0.23551 -2.572502,-0.43309 -2.592488,-0.43906 -0.01999,-0.006 -0.04145,-0.0272 -0.0477,-0.0472 -0.03634,-0.11619 -0.163469,-1.29636 -0.216999,-2.01452 -0.0471,-0.63184 -0.06379,-2.12132 -0.03168,-2.82591 0.03326,-0.72979 0.078,-1.27999 0.106386,-1.30837 0.01238,-0.0124 1.188967,-0.28537 2.614643,-0.60667 1.425676,-0.32129 2.595811,-0.58784 2.600298,-0.59233 0.0045,-0.004 0.345173,-1.1452 0.757078,-2.53493 l 0.748919,-2.52678 -0.135002,-0.14518 c -0.07425,-0.0798 -0.909868,-0.9366 -1.856927,-1.90391 -0.947058,-0.9673 -1.725064,-1.77787 -1.728901,-1.80126 -0.004,-0.0242 0.09572,-0.22738 0.23186,-0.47241 0.848079,-1.52645 1.74098,-2.82729 2.8705,-4.18195 0.24765,-0.29701 0.374455,-0.43306 0.403635,-0.43306 0.0234,0 1.135982,0.47194 2.472403,1.04876 1.336421,0.57682 2.437956,1.04597 2.447855,1.04255 0.0099,-0.003 0.956351,-0.72316 2.103224,-1.59944 2.064643,-1.57752 2.085225,-1.59398 2.085313,-1.66809 5e-5,-0.0412 -0.171378,-1.22969 -0.38095,-2.64115 -0.301707,-2.03199 -0.375949,-2.57464 -0.356591,-2.6064 0.04844,-0.0795 1.115283,-0.55439 2.204594,-0.98142 1.001792,-0.39273 1.449072,-0.54362 2.180524,-0.73561 0.762382,-0.20011 1.366047,-0.34937 1.413,-0.34937 0.03675,0 0.28803,0.4121 1.401564,2.29854 0.746233,1.26419 1.368716,2.30311 1.383297,2.3087 0.01458,0.006 1.207758,-0.0178 2.651498,-0.052 2.46776,-0.0584 2.62632,-0.0644 2.64741,-0.10062 0.0123,-0.0212 0.57217,-1.08746 1.24408,-2.36954 0.99817,-1.90462 1.23013,-2.33231 1.26797,-2.33791 0.0627,-0.009 0.84261,0.1439 1.45218,0.28519 0.96323,0.22327 1.94221,0.51143 2.90393,0.85476 0.45433,0.1622 1.29607,0.49469 1.34745,0.53225 0.0311,0.0228 0.0397,0.0522 0.0359,0.12325 -0.003,0.0513 -0.10626,1.23281 -0.23003,2.62548 -0.12377,1.39266 -0.22214,2.55425 -0.21859,2.58131 0.005,0.0389 0.45878,0.35668 2.16689,1.51781 1.18823,0.80773 2.1713,1.47281 2.18459,1.47794 0.0133,0.005 1.09376,-0.52536 2.40104,-1.17888 1.30727,-0.65352 2.39016,-1.18822 2.40641,-1.18822 0.0371,0 0.44116,0.41697 0.85022,0.87748 1.04933,1.18134 1.89778,2.31199 2.72346,3.62928 0.22026,0.35141 0.22953,0.37086 0.1987,0.41702 -0.0178,0.0266 -0.80882,0.93824 -1.75785,2.02579 -1.40974,1.61551 -1.72338,1.98588 -1.71385,2.02383 0.0171,0.0683 1.76043,4.92884 1.77189,4.94029 0.005,0.005 1.19184,0.20551 2.63663,0.44478 2.00169,0.33151 2.63276,0.44307 2.65155,0.46878 0.0255,0.0348 0.086,0.46556 0.15971,1.13725 0.11937,1.08702 0.16879,2.37978 0.13223,3.45916 -0.039,1.15162 -0.0714,1.56602 -0.12393,1.58618 -0.018,0.007 -0.90536,0.21048 -1.97194,0.45239 -2.61141,0.5923 -3.21815,0.73343 -3.23425,0.75232 -0.0168,0.0197 -1.47635,5.0317 -1.47559,5.06708 3e-4,0.014 0.80189,0.8349 1.7813,1.82426 0.97941,0.98935 1.82325,1.84684 1.87519,1.90553 l 0.0944,0.1067 -0.0374,0.0793 c -0.0743,0.15768 -0.43218,0.79409 -0.67826,1.20617 -0.61726,1.03365 -1.3009,2.01918 -2.0518,2.95782 -0.4083,0.51041 -0.68093,0.83124 -0.7227,0.85047 -0.0245,0.0113 -0.80207,-0.31131 -2.48476,-1.03087 -2.39916,-1.02595 -2.45021,-1.04659 -2.50268,-1.01236 -0.0694,0.0453 -4.06281,3.12308 -4.11315,3.17008 -0.0434,0.0405 -0.0427,0.0456 0.48604,3.55091 0.24971,1.65544 0.26391,1.76654 0.23001,1.80013 -0.039,0.0386 -0.76217,0.37847 -1.26609,0.595 -0.77282,0.33209 -1.76374,0.70014 -2.52406,0.93751 -0.83889,0.26189 -1.95233,0.55696 -2.01335,0.53355 -0.0173,-0.007 -0.5819,-0.93942 -1.25457,-2.07281 -0.67268,-1.13338 -1.28395,-2.16175 -1.35838,-2.28525 l -0.13533,-0.22455 -0.21277,-0.005 c -0.11702,-0.003 -1.30969,0.0263 -2.65037,0.0641 l -2.43761,0.0688 -0.0685,0.12183 c -0.0377,0.067 -0.55221,1.05343 -1.14342,2.19205 -1.387088,2.67141 -1.255293,2.43276 -1.346548,2.43821 -0.04089,0.002 -0.324618,-0.0469 -0.6305,-0.10964 z m 2.149733,-9.25179 c 0.966394,-0.34404 2.909094,-1.10027 2.909094,-1.13242 0,-0.008 -0.17567,-0.0211 -0.39038,-0.0286 -6.278021,-0.21963 -11.823506,-4.11255 -14.171255,-9.9482 -1.44453,-3.59057 -1.511719,-7.65235 -0.186963,-11.3024 0.419978,-1.15715 1.033483,-2.37227 1.703461,-3.37389 1.793476,-2.68128 4.32126,-4.73244 7.311143,-5.93259 1.605918,-0.64462 3.311532,-1.01413 5.113674,-1.10782 2.21032,-0.11492 4.53576,0.2708 6.62699,1.0992 3.73825,1.48083 6.81221,4.37794 8.51699,8.027 1.35092,2.89162 1.7924,6.12394 1.27129,9.30778 -0.26349,1.60986 -0.81207,3.25885 -1.5644,4.70252 -0.10047,0.19278 -0.16937,0.34261 -0.15313,0.33296 0.084,-0.0499 1.29865,-1.05656 1.75145,-1.45152 0.68406,-0.59668 1.01246,-0.90114 1.03799,-0.96232 0.048,-0.11501 0.20222,-0.66822 0.3102,-1.11269 0.73578,-3.02856 0.63847,-6.26712 -0.27799,-9.25222 -0.72731,-2.36902 -1.93738,-4.52863 -3.60591,-6.43551 -0.49007,-0.56008 -1.38402,-1.42606 -1.98835,-1.92616 -2.54447,-2.10559 -5.67225,-3.45227 -8.98396,-3.86807 -1.21296,-0.15229 -2.69223,-0.1724 -3.89305,-0.0529 -3.460375,0.3443 -6.694358,1.67959 -9.36898,3.86841 -0.882135,0.72191 -1.838699,1.68505 -2.549323,2.56686 -1.863445,2.31232 -3.112481,5.08604 -3.611374,8.01975 -0.165781,0.97487 -0.223655,1.62193 -0.239089,2.67315 -0.0165,1.12353 0.02188,1.76493 0.166356,2.78015 0.701192,4.92732 3.489649,9.33168 7.666585,12.10933 1.308518,0.87016 2.732265,1.55546 4.270799,2.05569 0.666323,0.21665 1.76856,0.4998 1.889629,0.48542 0.03529,-0.004 0.23262,-0.0676 0.438503,-0.14088 z m 3.657754,-5.04668 c 3.09088,-0.17427 5.85696,-1.42918 8.00306,-3.6308 1.77227,-1.81813 2.91948,-4.17014 3.26709,-6.69821 0.0816,-0.59338 0.0989,-0.88919 0.0974,-1.66809 -0.002,-0.81042 -0.0227,-1.10569 -0.1288,-1.7964 -0.247,-1.60742 -0.83866,-3.179 -1.71846,-4.56466 -1.15973,-1.82653 -2.83719,-3.34397 -4.75027,-4.29712 -2.37957,-1.18557 -5.09282,-1.55289 -7.66845,-1.03814 -2.027106,0.40512 -3.880905,1.30601 -5.454541,2.65072 -0.347565,0.297 -1.14911,1.10415 -1.421793,1.43173 -0.968514,1.16351 -1.689457,2.45516 -2.160826,3.87136 -1.005422,3.02073 -0.779626,6.26775 0.633528,9.11035 1.008174,2.02797 2.527908,3.69456 4.451002,4.88114 0.413135,0.25491 1.182101,0.64791 1.641828,0.8391 1.647338,0.68511 3.486932,1.00612 5.209202,0.90902 z"
         id="path41" /><path
         style="fill:#b1b8c4"
         d="m 97.410256,170.90272 c -1.729779,-0.34174 -3.250068,-0.79057 -4.900167,-1.44666 -0.238278,-0.0947 -0.448686,-0.18356 -0.467573,-0.19736 -0.0313,-0.0229 -0.02488,-0.12641 0.07253,-1.16917 0.287238,-3.07475 0.385637,-4.175 0.374933,-4.19232 -0.01751,-0.0283 -0.373966,-0.27483 -2.452671,-1.69614 -1.043355,-0.7134 -1.906178,-1.29708 -1.917385,-1.29708 -0.01121,0 -1.095315,0.53557 -2.409127,1.19015 l -2.38875,1.19015 -0.107836,-0.10482 c -0.16005,-0.15558 -0.718696,-0.76863 -1.021947,-1.12147 -0.878401,-1.02204 -1.774616,-2.2498 -2.503191,-3.42922 -0.133421,-0.21599 -0.153322,-0.26024 -0.13222,-0.29402 0.01366,-0.0219 0.802441,-0.92275 1.752843,-2.00195 0.950401,-1.0792 1.735735,-1.97477 1.745187,-1.99016 0.01063,-0.0173 -0.319826,-0.97852 -0.865914,-2.51879 -0.74579,-2.10353 -0.88995,-2.49253 -0.927164,-2.50183 -0.02424,-0.006 -1.208464,-0.20729 -2.631617,-0.44717 -1.95065,-0.32879 -2.593569,-0.44437 -2.611996,-0.46956 -0.02731,-0.0373 -0.02716,-0.0363 -0.114985,-0.82467 -0.156589,-1.40563 -0.204185,-2.6363 -0.150531,-3.89221 0.02703,-0.63276 0.08345,-1.41727 0.103398,-1.43767 0.0083,-0.009 1.179627,-0.27708 2.602855,-0.59676 1.423228,-0.31968 2.598676,-0.59178 2.612106,-0.60467 0.0308,-0.0296 1.510946,-5.02581 1.501363,-5.06787 -0.0039,-0.017 -0.79637,-0.8373 -1.761076,-1.82277 -0.964706,-0.98547 -1.801698,-1.84389 -1.859983,-1.90761 l -0.105973,-0.11585 0.08356,-0.16229 c 0.337791,-0.65604 1.027191,-1.7803 1.582634,-2.58092 0.589781,-0.85011 1.724755,-2.28985 1.839989,-2.33406 0.01545,-0.006 1.122203,0.46148 2.459458,1.03868 1.337255,0.57719 2.444151,1.04944 2.459769,1.04944 0.0249,0 4.089704,-3.09094 4.188364,-3.18489 0.03658,-0.0349 0.02192,-0.14661 -0.34825,-2.65478 -0.212543,-1.44013 -0.383741,-2.63691 -0.380439,-2.65953 0.01591,-0.10897 2.26332,-1.05425 3.439158,-1.44654 0.427365,-0.14258 0.926389,-0.28041 1.900615,-0.52494 0.400927,-0.10063 0.482554,-0.11531 0.50539,-0.0909 0.01498,0.016 0.625876,1.04439 1.357549,2.2853 0.731672,1.24091 1.342963,2.26917 1.358425,2.28502 0.02357,0.0242 0.45338,0.0189 2.661253,-0.0328 1.70985,-0.04 2.64094,-0.0694 2.65536,-0.0838 0.0122,-0.0122 0.57103,-1.07049 1.24181,-2.35173 0.67078,-1.28124 1.23233,-2.34228 1.24789,-2.35785 0.0314,-0.0315 0.25332,0.005 1.02892,0.16944 1.24923,0.26477 2.7618,0.71671 3.96659,1.18518 0.7546,0.29342 0.75975,0.29589 0.76625,0.36669 0.003,0.0334 -0.0995,1.23472 -0.22783,2.66971 -0.21689,2.42471 -0.23089,2.61155 -0.19807,2.64417 0.0687,0.0683 4.32346,2.94822 4.35565,2.94822 0.018,0 1.10109,-0.53411 2.40693,-1.18691 1.30584,-0.6528 2.38328,-1.18692 2.39431,-1.18692 0.0243,0 0.64302,0.66348 1.01703,1.09068 0.92057,1.05147 1.80725,2.24608 2.54497,3.4288 0.17873,0.28654 0.20816,0.34607 0.1916,0.38748 -0.0108,0.0269 -0.79443,0.93622 -1.74149,2.02066 -0.94706,1.08445 -1.72483,1.98905 -1.72839,2.01022 -0.008,0.0461 1.7418,4.9419 1.77808,4.97572 0.0138,0.0129 1.20432,0.21814 2.6455,0.45607 1.44117,0.23793 2.62672,0.43909 2.63455,0.44701 0.0159,0.0161 0.1068,0.68724 0.15551,1.14786 0.126,1.19163 0.17065,2.60745 0.11937,3.78529 -0.0306,0.70204 -0.067,1.21649 -0.0879,1.23882 -0.0102,0.0109 -0.85853,0.2104 -1.88527,0.4433 -3.10825,0.70509 -3.29899,0.74951 -3.32605,0.77465 -0.0144,0.0133 -0.34457,1.11646 -0.73381,2.4514 -0.38924,1.33494 -0.72144,2.47405 -0.73823,2.53137 l -0.0305,0.1042 1.09588,1.1103 c 0.60273,0.61067 1.45037,1.47096 1.88364,1.91175 l 0.78776,0.80145 -0.14407,0.27232 c -0.62032,1.1726 -1.50121,2.52474 -2.38846,3.66624 -0.37797,0.48628 -0.92296,1.14105 -0.96206,1.15583 -0.0151,0.006 -0.78788,-0.31568 -1.71729,-0.71419 -2.95271,-1.26607 -3.2024,-1.3701 -3.24252,-1.35099 -0.0203,0.01 -0.96635,0.73454 -2.10232,1.61082 -1.7856,1.3774 -2.06552,1.60073 -2.06617,1.64853 -4.2e-4,0.0304 0.17249,1.2093 0.38423,2.61976 0.21174,1.41046 0.385,2.58676 0.38503,2.61399 3e-5,0.0428 -0.0431,0.0701 -0.31547,0.19973 -1.47739,0.70341 -3.02893,1.27616 -4.60099,1.69846 -0.41766,0.1122 -0.86532,0.22295 -0.90114,0.22295 -0.009,0 -0.0553,-0.065 -0.10206,-0.14435 -0.14321,-0.24321 -2.45354,-4.13318 -2.55345,-4.29932 -0.054,-0.0898 -0.11182,-0.16017 -0.13648,-0.16611 -0.0581,-0.014 -5.21071,0.13253 -5.25229,0.14937 -0.0182,0.007 -0.0683,0.0829 -0.11133,0.16782 -0.0431,0.0849 -0.597238,1.15049 -1.231525,2.36787 -0.872097,1.67382 -1.163059,2.21444 -1.193488,2.21758 -0.02213,0.002 -0.252004,-0.0377 -0.510827,-0.0888 z m 2.224599,-9.32336 c 0.932895,-0.34093 2.305125,-0.87497 2.673795,-1.04058 l 0.10695,-0.048 -0.0642,-0.0154 c -0.0353,-0.008 -0.1893,-0.0166 -0.34224,-0.0181 -0.15294,-0.001 -0.41765,-0.0125 -0.58824,-0.0245 -4.653371,-0.32622 -8.837942,-2.60417 -11.630378,-6.33122 -2.525153,-3.37031 -3.591566,-7.56696 -2.98844,-11.76039 0.374395,-2.60309 1.423084,-5.12596 3.000213,-7.2177 1.799529,-2.38672 4.223154,-4.21689 6.98759,-5.27658 2.302606,-0.88267 4.801975,-1.21501 7.272725,-0.96708 4.95044,0.49676 9.37723,3.29583 11.97148,7.56958 2.55761,4.2134 2.99092,9.42728 1.166,14.03009 -0.18347,0.46273 -0.38201,0.89939 -0.62919,1.38381 -0.12456,0.24411 -0.22055,0.44976 -0.21332,0.45699 0.039,0.039 2.6882,-2.21161 2.81289,-2.38958 0.0745,-0.10631 0.37001,-1.24061 0.5064,-1.94368 0.21933,-1.13054 0.31735,-2.17596 0.3168,-3.37895 -0.001,-3.31563 -0.91625,-6.49289 -2.67525,-9.29213 -1.43503,-2.28368 -3.44603,-4.26361 -5.75165,-5.66281 -3.39279,-2.05896 -7.4413,-2.90694 -11.39721,-2.3872 -4.717884,0.61985 -8.927783,3.09967 -11.796403,6.94864 -0.240043,0.32208 -0.680862,0.9798 -0.903648,1.34829 -2.043307,3.37965 -2.885135,7.41605 -2.368163,11.35487 0.438121,3.33806 1.81859,6.45204 4.005211,9.03473 1.377997,1.62759 3.04212,2.9935 4.895075,4.01788 1.381422,0.7637 2.872999,1.33639 4.493758,1.72536 0.490357,0.11769 0.502623,0.11643 1.139415,-0.11628 z m 3.593585,-4.99608 c 3.23423,-0.2167 6.17152,-1.67294 8.30208,-4.11599 0.67828,-0.77776 1.22385,-1.60228 1.69808,-2.5663 0.64614,-1.31345 1.01958,-2.6295 1.18031,-4.15953 0.0382,-0.36407 0.0382,-1.88592 -6e-5,-2.23482 -0.0795,-0.72486 -0.17583,-1.26543 -0.33552,-1.88278 -0.65829,-2.54497 -2.16741,-4.83241 -4.26416,-6.46338 -3.12652,-2.43197 -7.30476,-3.14883 -11.071583,-1.89954 -1.015517,0.3368 -1.89798,0.76136 -2.771182,1.33324 -2.887567,1.89114 -4.816249,4.87583 -5.323851,8.23881 -0.152848,1.01265 -0.172564,2.16749 -0.05458,3.19717 0.400281,3.49348 2.373184,6.6871 5.32496,8.61974 1.713001,1.12157 3.73015,1.79857 5.754006,1.93118 0.39905,0.0261 1.18755,0.0273 1.5615,0.002 z"
         id="path40" /><path
         style="fill:#aaadb2"
         d="m 97.538598,170.92377 c -1.742934,-0.3348 -3.372532,-0.81255 -5.048128,-1.47995 -0.22353,-0.089 -0.422065,-0.17753 -0.44119,-0.19666 -0.0321,-0.0321 -0.02851,-0.10127 0.04679,-0.90091 0.04486,-0.47637 0.15547,-1.6697 0.245797,-2.65184 l 0.16423,-1.78572 -0.08268,-0.0693 c -0.134476,-0.11264 -4.270816,-2.93544 -4.3014,-2.93544 -0.0154,0 -1.093055,0.5293 -2.394789,1.17622 -1.301733,0.64692 -2.383464,1.17622 -2.403846,1.17622 -0.03862,0 -0.524819,-0.51293 -0.993288,-1.04791 -0.456085,-0.52083 -1.080789,-1.30729 -1.51187,-1.90333 -0.568963,-0.7867 -1.291307,-1.90766 -1.262475,-1.95917 0.0092,-0.0164 0.80081,-0.92067 1.759142,-2.00942 0.958332,-1.08875 1.745097,-1.99574 1.748367,-2.01553 0.0064,-0.0386 -1.732353,-4.95729 -1.763022,-4.9874 -0.01008,-0.01 -1.197469,-0.21648 -2.638645,-0.45908 -1.441177,-0.2426 -2.627001,-0.44773 -2.635165,-0.45585 -0.02149,-0.0214 -0.05153,-0.22864 -0.112172,-0.77395 -0.152731,-1.37336 -0.206386,-2.59359 -0.164093,-3.73182 0.0319,-0.85855 0.08565,-1.61874 0.11671,-1.65069 0.01357,-0.014 0.558891,-0.14571 1.211832,-0.29279 0.652941,-0.14707 1.812834,-0.40811 2.57754,-0.58009 0.764706,-0.17197 1.402531,-0.32458 1.41739,-0.33913 0.03052,-0.0299 1.502396,-4.97876 1.502396,-5.05148 0,-0.0412 -1.227501,-1.31304 -3.459876,-3.58496 l -0.266868,-0.27159 0.140156,-0.26486 c 0.672755,-1.27132 1.63043,-2.71052 2.642841,-3.97168 0.545464,-0.67949 0.706212,-0.85903 0.755195,-0.84348 0.02271,0.007 1.13084,0.48336 2.462514,1.05811 2.301687,0.99343 2.423661,1.04343 2.470558,1.01271 0.09561,-0.0626 4.079681,-3.1134 4.130214,-3.1627 l 0.0512,-0.0499 -0.388724,-2.6362 c -0.323213,-2.19192 -0.383936,-2.64099 -0.36031,-2.66461 0.03566,-0.0357 0.730088,-0.36025 1.174454,-0.54898 0.839424,-0.35651 2.095035,-0.82836 2.616557,-0.98328 0.548729,-0.163 1.974717,-0.5275 2.009693,-0.5137 0.01232,0.005 0.632671,1.04315 1.378568,2.30732 l 1.356176,2.2985 0.183931,5.3e-4 c 0.319582,9.4e-4 5.058922,-0.10919 5.103712,-0.1186 0.0323,-0.007 0.34392,-0.58535 1.27273,-2.36311 0.67647,-1.29478 1.24438,-2.36203 1.26203,-2.37167 0.0577,-0.0315 1.22055,0.20729 2.03209,0.41736 1.10944,0.2872 2.20506,0.64651 3.28342,1.0768 0.21176,0.0845 0.39722,0.16554 0.41212,0.18008 0.0218,0.0213 -0.0188,0.54226 -0.20936,2.68598 -0.13005,1.46275 -0.22887,2.66636 -0.21961,2.67469 0.009,0.008 0.99865,0.68221 2.19863,1.49751 l 2.18177,1.48236 2.39455,-1.20497 2.39455,-1.20497 0.27929,0.28692 c 0.83919,0.86213 1.83095,2.0829 2.63043,3.23782 0.24918,0.35997 0.71172,1.07697 0.82105,1.27275 l 0.0567,0.10147 -0.0983,0.11486 c -0.0541,0.0632 -0.84549,0.97111 -1.75874,2.01764 -1.33813,1.53343 -1.65787,1.9112 -1.64719,1.94611 0.0698,0.22821 1.77193,4.94402 1.78818,4.95418 0.0119,0.007 1.19722,0.20798 2.63408,0.44568 1.43685,0.23769 2.62364,0.44333 2.6373,0.45698 0.0408,0.0407 0.16688,1.06399 0.23102,1.87467 0.0797,1.00716 0.0947,2.56122 0.0337,3.49658 -0.0115,0.17644 -0.0273,0.41848 -0.035,0.53788 -0.008,0.1194 -0.0205,0.2275 -0.0284,0.24024 -0.008,0.0127 -1.09191,0.26827 -2.40899,0.56786 -2.99096,0.68035 -2.7984,0.63581 -2.81567,0.65125 -0.008,0.007 -0.34291,1.139 -0.7442,2.51518 -0.40128,1.37617 -0.73487,2.5196 -0.74131,2.54095 -0.0133,0.0443 -0.0679,-0.0124 2.21126,2.29645 0.889,0.90059 1.52412,1.56014 1.52412,1.58274 0,0.0213 -0.11191,0.24076 -0.2487,0.48766 -0.60038,1.08365 -1.22896,2.05638 -1.97632,3.05836 -0.50037,0.67083 -1.20581,1.5286 -1.2572,1.52867 -0.0202,2e-5 -3.81235,-1.60907 -4.79322,-2.03384 -0.0515,-0.0223 -0.10741,-0.0405 -0.12426,-0.0405 -0.0168,0 -0.96856,0.72389 -2.11493,1.60863 -2.01861,1.55794 -2.0843,1.61086 -2.0843,1.6792 0,0.0388 0.17335,1.22762 0.38522,2.6418 0.21187,1.41417 0.38036,2.58395 0.37441,2.59951 -0.0122,0.032 -0.52716,0.28343 -1.06979,0.52236 -1.34546,0.59245 -2.81243,1.09534 -4.2635,1.46159 -0.37195,0.0939 -0.46658,0.1112 -0.48796,0.0893 -0.0146,-0.0149 -0.45175,-0.7441 -0.97148,-1.62038 -1.27446,-2.14881 -1.73211,-2.91381 -1.763,-2.94705 -0.0213,-0.0229 -0.4626,-0.0162 -2.4732,0.0374 -1.346,0.0359 -2.538,0.0725 -2.64889,0.0814 l -0.20161,0.0161 -0.14686,0.27802 c -0.0808,0.15291 -0.629312,1.20669 -1.21899,2.34175 -0.589679,1.13505 -1.086499,2.08057 -1.104045,2.10115 -0.01755,0.0206 -0.03763,0.0364 -0.04463,0.0352 -0.007,-0.001 -0.176364,-0.0337 -0.376364,-0.0721 z m 2.104427,-9.3271 c 0.607835,-0.22029 1.521935,-0.56938 2.034615,-0.777 0.20588,-0.0834 0.46336,-0.18719 0.57219,-0.23069 0.10882,-0.0435 0.19786,-0.0862 0.19786,-0.0949 0,-0.0254 -0.10601,-0.0345 -0.68449,-0.0589 -4.480997,-0.18935 -8.660465,-2.28107 -11.519175,-5.76507 -1.665953,-2.03035 -2.80374,-4.43757 -3.302831,-6.98779 -0.677569,-3.46221 -0.18574,-7.04014 1.400047,-10.18501 1.247177,-2.47335 3.090853,-4.54307 5.411261,-6.07471 2.257189,-1.48991 4.724827,-2.33731 7.475938,-2.56728 0.53596,-0.0448 1.83678,-0.0513 2.33155,-0.0116 1.86487,0.1495 3.48428,0.53819 5.11183,1.22691 3.54669,1.50084 6.46778,4.30977 8.12359,7.81164 0.858,1.81459 1.34116,3.69777 1.48145,5.77417 0.0292,0.43188 0.0292,1.50243 9e-5,1.94837 -0.12082,1.84908 -0.52729,3.57005 -1.24201,5.25864 -0.0747,0.17644 -0.26383,0.5769 -0.42034,0.88992 -0.2715,0.54302 -0.30921,0.63039 -0.26511,0.61422 0.0475,-0.0174 1.33468,-1.08226 1.84261,-1.52433 0.63549,-0.5531 0.93721,-0.83344 0.98122,-0.91174 0.0552,-0.0983 0.15693,-0.43286 0.29084,-0.95696 1.24061,-4.8556 0.34014,-10.02636 -2.4661,-14.16115 -1.67926,-2.47426 -3.9281,-4.45779 -6.58246,-5.8059 -2.31206,-1.17426 -4.82865,-1.81387 -7.43567,-1.88984 -5.266772,-0.15348 -10.263762,2.02842 -13.731126,5.99557 -4.063555,4.64928 -5.367577,11.17188 -3.408939,17.0512 0.743456,2.23166 1.902351,4.24523 3.485568,6.05616 0.310321,0.35495 1.213214,1.25984 1.560759,1.56421 2.038691,1.78542 4.360157,3.03793 6.951871,3.75075 0.626334,0.17227 1.06457,0.2667 1.184642,0.25527 0.06748,-0.006 0.324192,-0.0867 0.62032,-0.19406 z m 4.045305,-5.04327 c 1.50383,-0.16814 2.82128,-0.55018 4.10695,-1.19095 3.62404,-1.80621 6.07816,-5.26129 6.57549,-9.25744 0.0667,-0.53588 0.0845,-0.85789 0.0835,-1.50769 -10e-4,-0.68748 -0.0287,-1.09396 -0.11476,-1.68948 -0.55652,-3.85115 -2.98514,-7.22324 -6.45866,-8.9677 -1.50775,-0.75723 -2.96264,-1.15189 -4.67379,-1.26786 -0.44875,-0.0304 -1.46104,-0.0124 -1.89305,0.0337 -2.236631,0.23855 -4.232595,1.01472 -5.989306,2.32905 -0.631732,0.47264 -1.557628,1.34589 -2.031204,1.9157 -1.626939,1.95753 -2.561535,4.26001 -2.760913,6.80181 -0.05604,0.71447 -0.01776,1.84111 0.08758,2.57705 0.622438,4.34891 3.572665,8.00853 7.688498,9.53722 1.027702,0.38171 2.136015,0.62268 3.294115,0.71621 0.37283,0.0301 1.72289,0.011 2.08556,-0.0296 z"
         id="path39" /><path
         style="fill:#6c839e"
         d="m 97.217742,170.84799 c -1.267565,-0.25743 -2.448166,-0.584 -3.647058,-1.00881 -0.49384,-0.17499 -1.493978,-0.56463 -1.525849,-0.59445 -0.0098,-0.009 0.0074,-0.28486 0.03822,-0.61263 0.14432,-1.5346 0.396448,-4.31889 0.409382,-4.52087 l 0.01442,-0.22518 -0.115145,-0.0866 c -0.177596,-0.13353 -4.250634,-2.91678 -4.269563,-2.91754 -0.0092,-3.7e-4 -1.093251,0.53615 -2.409029,1.19226 l -2.392323,1.19293 -0.195912,-0.20373 c -0.820777,-0.85352 -1.693068,-1.91396 -2.444746,-2.97206 -0.494054,-0.69546 -1.1326,-1.6907 -1.114487,-1.73705 0.0059,-0.015 0.801108,-0.92501 1.767207,-2.02223 0.966098,-1.09722 1.756542,-2.0013 1.756542,-2.00907 0,-0.0293 -1.760128,-4.97889 -1.777122,-4.9974 -0.0098,-0.0107 -1.197643,-0.21833 -2.639677,-0.46148 -1.442034,-0.24316 -2.630195,-0.45097 -2.640356,-0.4618 -0.03767,-0.0401 -0.181895,-1.4029 -0.240874,-2.2759 -0.03573,-0.52886 -0.03575,-2.36381 -2.8e-5,-2.91916 0.03938,-0.61225 0.06879,-0.91738 0.09056,-0.93954 0.01078,-0.011 1.180332,-0.28145 2.59901,-0.60107 1.499832,-0.3379 2.59085,-0.5936 2.606736,-0.61093 0.03254,-0.0355 1.514878,-5.03637 1.505533,-5.07912 -0.0035,-0.0162 -0.73319,-0.77198 -1.621425,-1.67945 -0.888235,-0.90747 -1.725337,-1.76531 -1.860226,-1.90633 l -0.245253,-0.25639 0.09552,-0.18301 c 0.762612,-1.46112 2.070389,-3.37069 3.193085,-4.66243 0.152766,-0.17577 0.201382,-0.21904 0.237138,-0.21107 0.02474,0.006 1.127305,0.47792 2.450152,1.04979 1.322846,0.57188 2.416837,1.03977 2.431091,1.03977 0.02515,0 4.099884,-3.10243 4.195248,-3.19419 l 0.04756,-0.0458 -0.384455,-2.60551 c -0.211451,-1.43303 -0.384456,-2.62736 -0.384456,-2.65407 0,-0.042 0.05117,-0.0724 0.379679,-0.22561 0.7489,-0.34921 1.931438,-0.82937 2.817146,-1.14387 0.643231,-0.2284 2.578404,-0.74876 2.619726,-0.70443 0.01002,0.0108 0.616925,1.03484 1.348669,2.27575 0.731745,1.24091 1.34747,2.27379 1.368278,2.29528 0.03664,0.0378 0.121191,0.0371 2.67242,-0.0226 2.20833,-0.0517 2.63951,-0.0667 2.66508,-0.0925 0.0168,-0.017 0.5794,-1.07983 1.25027,-2.36191 0.67088,-1.28208 1.23247,-2.33936 1.24799,-2.34951 0.0485,-0.0317 1.31496,0.22982 2.06925,0.42729 1.11285,0.29135 2.15941,0.63549 3.2139,1.05681 l 0.44385,0.17734 v 0.0669 c 0,0.0368 -0.10104,1.2021 -0.22452,2.58955 -0.12349,1.38744 -0.22456,2.56304 -0.2246,2.61243 -7e-5,0.0764 0.0103,0.0975 0.0694,0.14176 0.2594,0.19387 4.30196,2.92284 4.32975,2.92284 0.0191,0 1.09835,-0.53411 2.39823,-1.18691 1.29988,-0.6528 2.37457,-1.18691 2.3882,-1.18691 0.0289,0 0.61397,0.62177 1.00614,1.06929 0.90916,1.03748 1.79469,2.22853 2.52512,3.3963 0.19695,0.31489 0.22861,0.37753 0.21185,0.41919 -0.0109,0.0269 -0.79458,0.93611 -1.74164,2.0204 -0.94706,1.08428 -1.72521,1.98643 -1.72923,2.00477 -0.009,0.0422 1.7453,4.94795 1.78442,4.98933 0.0189,0.02 0.35537,0.0844 0.97616,0.18674 2.46642,0.4066 4.30345,0.71442 4.31148,0.72245 0.014,0.014 0.0837,0.53411 0.14215,1.05979 0.12101,1.0891 0.1664,2.2484 0.13716,3.50264 -0.0175,0.74921 -0.0666,1.56012 -0.0961,1.5865 -0.01,0.009 -0.26348,0.0713 -0.56348,0.13868 -0.60902,0.13685 -3.81272,0.86683 -4.30712,0.9814 -0.17479,0.0405 -0.33008,0.0867 -0.34508,0.10266 -0.015,0.016 -0.35675,1.15965 -0.75942,2.54153 -0.55329,1.89878 -0.72764,2.52406 -0.71374,2.55976 0.0101,0.026 0.85528,0.89597 1.87814,1.93331 l 1.85973,1.88607 -0.11487,0.21628 c -0.64658,1.21739 -1.55995,2.61756 -2.45688,3.76632 -0.2784,0.35656 -0.86676,1.06906 -0.89951,1.0893 -0.0104,0.006 -1.02342,-0.41725 -2.25119,-0.94147 -2.88459,-1.23164 -2.68724,-1.1511 -2.73646,-1.11676 -0.23425,0.16339 -4.14894,3.2019 -4.1582,3.22752 -0.0127,0.0351 0.076,0.65204 0.51323,3.57129 0.13496,0.90104 0.24538,1.66224 0.24538,1.69155 0,0.0476 -0.0343,0.0697 -0.32222,0.20737 -1.19618,0.57201 -2.48099,1.06846 -3.7959,1.46673 -0.50484,0.15291 -1.45736,0.40771 -1.59752,0.42734 l -0.0918,0.0129 -0.73745,-1.24645 c -0.4056,-0.68554 -1.02033,-1.7204 -1.36607,-2.29969 l -0.62862,-1.05325 -0.20612,-3.8e-4 c -0.31705,-5.8e-4 -5.0344,0.12893 -5.0847,0.1396 -0.048,0.0102 -0.14928,0.19981 -1.699499,3.18093 -0.766704,1.47439 -0.823744,1.57711 -0.875058,1.57584 -0.03019,-7.5e-4 -0.334036,-0.0581 -0.675213,-0.12735 z m 6.737968,-8.75588 c 2.27611,-0.20262 4.30767,-0.76779 6.31016,-1.75547 1.36894,-0.67519 2.61803,-1.51709 3.85027,-2.5951 0.34062,-0.29799 1.22415,-1.18367 1.52802,-1.53174 1.19035,-1.3635 2.11927,-2.80998 2.83541,-4.4152 0.22113,-0.49566 0.33279,-0.77676 0.56107,-1.41243 0.23279,-0.64825 0.30584,-0.88125 0.4358,-1.39007 0.6824,-2.67173 0.72592,-5.53135 0.1247,-8.1947 -0.73912,-3.27423 -2.34781,-6.19235 -4.72564,-8.57217 -2.6559,-2.65813 -6.08952,-4.38701 -9.80749,-4.93824 -4.35407,-0.64553 -8.738558,0.33493 -12.363637,2.76477 -1.643124,1.10137 -3.090649,2.474 -4.288385,4.06651 -0.299403,0.39809 -0.833831,1.20112 -1.077593,1.6192 -1.36633,2.34337 -2.151852,4.86902 -2.366465,7.60878 -0.01244,0.15879 -0.02857,0.59185 -0.03584,0.96236 -0.08096,4.12311 1.285597,8.11589 3.87615,11.32527 0.57055,0.70684 1.54307,1.7177 2.164654,2.24999 1.675562,1.43487 3.394689,2.45279 5.406627,3.20136 0.880482,0.32759 2.034,0.64717 2.652406,0.73484 0.08235,0.0117 0.318182,0.0503 0.524064,0.0858 0.751449,0.12962 1.542299,0.20902 2.336099,0.23455 0.58273,0.0187 1.56536,-0.004 2.05962,-0.0483 z m -2.02139,-1.65939 c -3.244519,-0.11214 -6.383042,-1.22106 -8.967577,-3.16847 -1.384117,-1.04292 -2.642279,-2.37082 -3.612936,-3.81321 -1.820697,-2.70555 -2.745091,-5.83749 -2.685766,-9.09966 0.013,-0.71484 0.04642,-1.17349 0.132718,-1.82123 0.413169,-3.10129 1.731726,-5.99838 3.804182,-8.35841 0.313463,-0.35696 1.108955,-1.14643 1.468416,-1.4573 2.927231,-2.53152 6.552106,-3.88895 10.385023,-3.88895 3.30592,0 6.49025,1.01392 9.18311,2.924 0.72681,0.51553 1.31307,1.01412 2.00514,1.70527 1.19636,1.19479 2.13557,2.47674 2.89899,3.95693 2.27694,4.41471 2.32774,9.7048 0.13615,14.1779 -0.42036,0.85796 -0.68934,1.32891 -1.11812,1.95768 -1.95098,2.86097 -4.80368,5.01608 -8.08194,6.10563 -1.08751,0.36144 -2.27335,0.6139 -3.40835,0.72562 -0.77741,0.0765 -1.19034,0.087 -2.13904,0.0542 z m 1.25134,-3.8277 c 1.65768,-0.10927 3.15614,-0.50978 4.60962,-1.23204 1.51861,-0.75463 2.81117,-1.77355 3.9031,-3.07678 1.57742,-1.88267 2.53731,-4.23706 2.73847,-6.71686 0.0371,-0.45782 0.0424,-1.38635 0.0102,-1.80645 -0.20058,-2.618 -1.18289,-4.98498 -2.89732,-6.98139 -2.55486,-2.97507 -6.45271,-4.51091 -10.36406,-4.08367 -3.238803,0.35378 -6.183225,2.01477 -8.224771,4.6397 -0.821855,1.0567 -1.533623,2.42953 -1.935801,3.73369 -0.607434,1.96975 -0.699612,4.07081 -0.26686,6.08267 0.411264,1.91197 1.26126,3.64311 2.556729,5.20716 0.286649,0.34608 1.087201,1.14608 1.442892,1.44191 2.008634,1.67054 4.380253,2.61968 6.973261,2.79074 0.37706,0.0249 1.08736,0.0255 1.45455,0.001 z"
         id="path38" /><path
         style="fill:#667892"
         d="m 97.185657,170.82875 c -1.624423,-0.33155 -3.079683,-0.7673 -4.652407,-1.39307 -0.235294,-0.0936 -0.441538,-0.17897 -0.458321,-0.18967 -0.02604,-0.0166 0.0046,-0.40635 0.209039,-2.65699 0.131754,-1.45066 0.239335,-2.6535 0.23907,-2.67298 -2.66e-4,-0.0195 -0.04621,-0.0695 -0.102087,-0.11112 -0.135113,-0.10066 -4.192135,-2.88284 -4.252689,-2.91636 -0.04249,-0.0235 -0.28556,0.0922 -2.436355,1.16018 -1.314038,0.65246 -2.3972,1.1863 -2.407026,1.1863 -0.0098,0 -0.142572,-0.13232 -0.294989,-0.29405 -0.840048,-0.89138 -1.605857,-1.82752 -2.34048,-2.86105 -0.39372,-0.55392 -1.108033,-1.65666 -1.108033,-1.71055 0,-0.0138 0.790508,-0.92285 1.756684,-2.02023 1.178483,-1.33851 1.756281,-2.01008 1.755459,-2.04035 -0.0011,-0.039 -1.662599,-4.74276 -1.744786,-4.93941 -0.0362,-0.0866 0.201513,-0.0383 -2.013347,-0.4097 -2.977306,-0.49932 -3.272688,-0.54998 -3.288075,-0.56393 -0.03152,-0.0286 -0.166795,-1.25825 -0.232005,-2.10898 -0.03737,-0.48753 -0.05033,-2.19468 -0.02117,-2.78903 0.03446,-0.70229 0.07448,-1.19595 0.09886,-1.21926 0.01096,-0.0105 1.179783,-0.28008 2.597385,-0.59909 1.417602,-0.31902 2.589736,-0.59231 2.604743,-0.60732 0.02318,-0.0232 1.485164,-4.90822 1.514693,-5.06117 0.0091,-0.0469 -0.217217,-0.28602 -1.851307,-1.95608 -1.023896,-1.04644 -1.861629,-1.9149 -1.861629,-1.92991 0,-0.015 0.08213,-0.17689 0.182502,-0.35972 0.760978,-1.38614 1.663311,-2.72744 2.66115,-3.95575 0.37392,-0.46028 0.599763,-0.71642 0.631683,-0.71642 0.01661,0 1.124762,0.47242 2.46256,1.04983 2.04547,0.88284 2.439489,1.04627 2.477179,1.02745 0.02465,-0.0123 0.978509,-0.73748 2.119685,-1.61149 1.865836,-1.42901 2.075493,-1.59554 2.081086,-1.65298 0.0034,-0.0351 -0.16187,-1.20428 -0.367314,-2.5981 -0.205443,-1.39382 -0.376691,-2.56309 -0.380551,-2.59837 -0.0068,-0.0621 8.08e-4,-0.0681 0.238972,-0.18733 0.252301,-0.12632 0.982896,-0.44415 1.017903,-0.44281 0.01074,4.2e-4 -0.165764,0.0911 -0.392235,0.20164 -0.22647,0.11048 -0.41175,0.2136 -0.411732,0.22915 1.8e-5,0.0155 0.02909,0.26885 0.06461,0.56291 0.03552,0.29405 0.108233,0.90515 0.161594,1.35799 0.05336,0.45285 0.130031,1.10244 0.170378,1.44355 0.04035,0.3411 0.0735,0.63382 0.07367,0.65048 7.74e-4,0.0757 0.02912,-0.0175 0.09783,-0.32173 0.378646,-1.67664 1.086081,-3.06802 2.096352,-4.12311 0.520293,-0.54338 1.230657,-1.0675 1.656396,-1.22213 0.17216,-0.0625 0.914027,-0.25451 0.985069,-0.25492 0.02146,-1.3e-4 0.512789,0.81239 1.389785,2.29832 0.746124,1.26418 1.370387,2.3038 1.387252,2.31027 0.01687,0.006 0.363654,0.002 0.770642,-0.009 0.79579,-0.0226 1.23229,-0.0333 2.66511,-0.0656 1.76542,-0.0398 1.85866,-0.0435 1.89094,-0.075 0.0165,-0.0161 0.58115,-1.08131 1.25481,-2.36707 l 1.22483,-2.33774 0.0936,0.003 c 0.0515,0.002 0.29538,0.0434 0.54199,0.0927 1.31321,0.26251 2.54068,0.6057 3.82835,1.0704 0.54146,0.19541 1.21175,0.46362 1.24294,0.49735 0.0178,0.0192 0.006,0.22482 -0.0457,0.79585 -0.32484,3.58848 -0.4019,4.52158 -0.37599,4.55279 0.0147,0.0177 0.23526,0.17382 0.49024,0.34705 0.25498,0.17324 0.59355,0.40357 0.75237,0.51185 1.88808,1.28724 3.13375,2.1268 3.15557,2.1268 0.0147,0 1.09004,-0.53411 2.38957,-1.18691 1.29953,-0.6528 2.37641,-1.18691 2.39306,-1.18691 0.0439,0 0.70403,0.70704 1.17811,1.26176 0.88329,1.03354 1.66931,2.10488 2.389,3.25622 0.17364,0.27779 0.19399,0.32038 0.16954,0.3548 -0.0153,0.0215 -0.80265,0.92737 -1.74971,2.01299 -1.39889,1.60357 -1.72132,1.98434 -1.71867,2.02972 0.004,0.0769 1.75067,4.9409 1.78672,4.97694 0.0183,0.0183 0.97926,0.1861 2.61682,0.45689 1.42332,0.23537 2.60803,0.43263 2.63268,0.43837 0.0401,0.009 0.0487,0.0393 0.0815,0.28353 0.25227,1.88051 0.3063,3.50032 0.18174,5.44845 -0.0135,0.21172 -0.0307,0.39173 -0.0381,0.40001 -0.007,0.008 -0.69203,0.16978 -1.52139,0.35887 -3.15115,0.71846 -3.6691,0.83952 -3.69452,0.86352 -0.0144,0.0136 -0.35971,1.16776 -0.76737,2.56483 l -0.74119,2.54013 0.13598,0.14359 c 0.0748,0.079 0.91583,0.93595 1.86897,1.90438 0.95314,0.96843 1.73598,1.7738 1.73964,1.78971 0.007,0.0311 -0.27449,0.55447 -0.56941,1.05814 -0.63777,1.08919 -1.37919,2.16677 -2.17814,3.16573 -0.47472,0.59355 -0.6917,0.8387 -0.73196,0.82699 -0.0193,-0.006 -0.37206,-0.15463 -0.78383,-0.33113 -2.45696,-1.05316 -4.08653,-1.73817 -4.12165,-1.73258 -0.0487,0.008 -4.18303,3.19536 -4.2077,3.24416 -0.0103,0.0203 0.0423,0.43582 0.12867,1.01802 0.0803,0.54106 0.25234,1.70071 0.38232,2.57699 0.12997,0.87628 0.2416,1.61927 0.24807,1.65107 0.011,0.0541 0.001,0.0632 -0.1555,0.14181 -0.94501,0.47449 -2.44273,1.07014 -3.6111,1.43615 -0.76326,0.2391 -1.85994,0.53487 -1.98323,0.53487 -0.0338,0 -0.0606,-0.0172 -0.0748,-0.0481 -0.0206,-0.0449 -0.89488,-1.51782 -2.15165,-3.62506 -0.36526,-0.61243 -0.55278,-0.90738 -0.58177,-0.91506 -0.0235,-0.006 -1.22038,0.0214 -2.65967,0.0615 -2.48235,0.0691 -2.61886,0.0749 -2.65496,0.11309 -0.0209,0.0221 -0.16338,0.28085 -0.31656,0.5749 -0.153178,0.29406 -0.615004,1.17943 -1.026277,1.96749 -0.411274,0.78807 -0.833463,1.59867 -0.938197,1.80134 l -0.190427,0.36848 -0.07487,-6.4e-4 c -0.04118,-3.6e-4 -0.349198,-0.0566 -0.684492,-0.12508 z m 6.273553,-8.68495 c 3.1765,-0.18934 6.13464,-1.17096 8.7211,-2.89397 1.94044,-1.29265 3.60671,-2.95214 4.88836,-4.86847 0.85338,-1.27597 1.45936,-2.4986 2.00336,-4.04196 0.26218,-0.74382 0.28946,-0.8305 0.4132,-1.31299 0.68498,-2.67087 0.73896,-5.42274 0.15925,-8.11815 -0.86155,-4.00583 -3.15155,-7.6303 -6.42276,-10.16556 -1.85438,-1.43719 -4.02341,-2.50386 -6.29275,-3.09462 -2.18423,-0.5686 -4.45008,-0.71629 -6.68449,-0.43569 -3.00675,0.37758 -5.904172,1.5514 -8.313717,3.36808 -0.725392,0.54691 -1.235713,0.99045 -1.879831,1.63383 -1.709203,1.70725 -3.003157,3.67141 -3.90303,5.92462 -0.575459,1.4409 -0.983428,3.10164 -1.142612,4.6513 -0.07082,0.68942 -0.08548,1.00134 -0.08594,1.82848 -4.87e-4,0.87055 0.01727,1.22779 0.09675,1.94611 0.515404,4.65825 2.86889,8.90175 6.568455,11.8434 0.937085,0.74511 1.8972,1.3554 3.012871,1.91512 1.043416,0.52348 1.944859,0.87675 3.029166,1.18711 0.49626,0.14205 1.213642,0.3131 1.313804,0.31325 0.04078,7e-5 0.196522,0.0237 0.346098,0.0525 0.589844,0.11353 1.491026,0.2238 2.166546,0.26508 0.43486,0.0266 1.57877,0.028 2.00617,0.003 z m -1.58906,-1.73147 c -4.503607,-0.17821 -8.649446,-2.22212 -11.539174,-5.68884 -2.869205,-3.4421 -4.128553,-7.91526 -3.486063,-12.38238 0.253328,-1.76134 0.842278,-3.56522 1.672251,-5.1219 2.483296,-4.6576 7.110355,-7.76925 12.336946,-8.29647 1.02244,-0.10314 2.18719,-0.10327 3.20855,-3.5e-4 3.02001,0.3043 5.92195,1.48696 8.26738,3.3693 3.20809,2.57465 5.27197,6.22311 5.8058,10.26328 0.0999,0.75611 0.12644,1.18649 0.12726,2.06373 7.7e-4,0.82448 -0.0153,1.13156 -0.0955,1.82849 -0.22123,1.92079 -0.81006,3.84441 -1.68239,5.49615 -0.0901,0.17055 -0.19105,0.36602 -0.22439,0.43437 -0.0981,0.20105 -0.38419,0.67108 -0.64997,1.06768 -1.49574,2.23204 -3.55831,4.06118 -5.95456,5.2807 -1.82002,0.92626 -3.75779,1.47586 -5.87166,1.66537 -0.34583,0.031 -1.3749,0.0422 -1.91444,0.0209 z m 1.62567,-3.81886 c 4.02048,-0.33154 7.64341,-2.714 9.56964,-6.29303 0.5711,-1.06114 0.98479,-2.22957 1.20904,-3.41484 0.13673,-0.72271 0.19216,-1.25573 0.20902,-2.01027 0.0364,-1.62853 -0.24372,-3.17307 -0.85523,-4.71557 -0.16232,-0.40942 -0.5955,-1.28291 -0.82488,-1.6633 -0.71606,-1.18751 -1.61698,-2.24094 -2.65519,-3.10469 -3.64477,-3.03227 -8.75442,-3.62893 -12.983954,-1.51614 -0.27647,0.1381 -0.629647,0.32758 -0.784837,0.42105 -2.787815,1.67912 -4.752286,4.29727 -5.533177,7.37437 -0.895723,3.52958 -0.157291,7.24243 2.019615,10.15467 0.875431,1.17114 2.017291,2.22401 3.244406,2.99156 2.196754,1.37406 4.766797,1.99215 7.385547,1.77619 z"
         id="path37" /><path
         style="fill:#526785"
         d="m 97.470639,170.88105 c -1.320155,-0.25504 -2.63561,-0.61352 -3.899955,-1.06281 -0.550281,-0.19554 -1.429304,-0.53925 -1.480946,-0.57907 -0.03184,-0.0246 -0.01714,-0.22093 0.17573,-2.34716 0.115764,-1.2762 0.222672,-2.47318 0.237571,-2.65996 l 0.02709,-0.3396 -0.111374,-0.0959 c -0.151211,-0.13025 -4.254196,-2.9353 -4.293501,-2.9353 -0.01718,0 -1.096291,0.52929 -2.398025,1.17621 -1.301733,0.64693 -2.377871,1.17622 -2.391416,1.17622 -0.0459,0 -0.604156,-0.59597 -1.101795,-1.17622 -0.948194,-1.10559 -1.851644,-2.35217 -2.605808,-3.59549 l -0.04703,-0.0775 1.764805,-2.00498 c 0.970643,-1.10273 1.764725,-2.02058 1.764627,-2.03966 -9.8e-5,-0.0191 -0.397785,-1.15513 -0.883748,-2.52458 -0.683908,-1.92726 -0.892922,-2.49388 -0.924955,-2.50749 -0.02276,-0.01 -1.133899,-0.20096 -2.469193,-0.4251 -2.970168,-0.49855 -2.759485,-0.46229 -2.774665,-0.47747 -0.01778,-0.0178 -0.06196,-0.34896 -0.123016,-0.92211 -0.134761,-1.26509 -0.180198,-2.37769 -0.142954,-3.50046 0.02111,-0.63646 0.0809,-1.66204 0.09795,-1.6802 0.0027,-0.003 1.053392,-0.24125 2.334791,-0.52963 1.2814,-0.28838 2.444514,-0.55039 2.584699,-0.58225 0.140184,-0.0319 0.271431,-0.0726 0.291659,-0.0906 0.04412,-0.0392 1.523589,-5.02506 1.513541,-5.10073 -0.0043,-0.0325 -0.620565,-0.6771 -1.771869,-1.85353 -0.970895,-0.99208 -1.805906,-1.84815 -1.85558,-1.90237 l -0.09032,-0.0986 0.162721,-0.29705 c 0.696517,-1.27149 1.425969,-2.38523 2.316588,-3.537 0.294996,-0.38149 0.882127,-1.09263 0.957679,-1.15995 0.04017,-0.0358 0.0677,-0.026 0.724806,0.25845 3.233227,1.39947 4.185354,1.80374 4.228644,1.79545 0.05371,-0.0103 4.227571,-3.19428 4.244224,-3.23767 0.0058,-0.0152 -0.08632,-0.68498 -0.204765,-1.48843 -0.118448,-0.80346 -0.292525,-1.98381 -0.386836,-2.62301 -0.09431,-0.63919 -0.171474,-1.16883 -0.171474,-1.17697 0,-0.014 0.213778,-0.12625 0.353004,-0.18535 l 0.06423,-0.0273 0.0036,0.089 c 0.0046,0.1128 0.475614,4.09974 0.488824,4.13759 0.01892,0.0542 0.04735,0.004 0.07286,-0.12915 0.425282,-2.21685 1.460142,-4.02388 2.942596,-5.13823 0.270946,-0.20367 0.565803,-0.38705 0.81669,-0.50793 0.180663,-0.087 1.007638,-0.30808 1.037127,-0.27721 0.01379,0.0144 0.332423,0.5532 1.937702,3.27636 0.405622,0.68809 0.755396,1.26981 0.777277,1.29272 0.03942,0.0413 0.06364,0.0411 2.676661,-0.0184 1.89565,-0.0432 2.64818,-0.0672 2.67706,-0.0853 0.0361,-0.0227 0.30015,-0.5154 1.20439,-2.2476 0.15964,-0.30582 0.33114,-0.63302 0.38112,-0.72712 0.05,-0.0941 0.27145,-0.51753 0.49217,-0.94097 0.22072,-0.42344 0.41204,-0.78138 0.42516,-0.79543 0.0184,-0.0197 0.0982,-0.0113 0.34937,0.0369 1.49304,0.28646 2.80919,0.65168 4.2734,1.18585 0.47219,0.17226 1.08021,0.42361 1.08014,0.44653 -3e-5,0.0134 -0.10571,1.2121 -0.23484,2.66383 -0.17395,1.95577 -0.22862,2.6469 -0.21105,2.66807 0.0244,0.0294 4.31588,2.95405 4.38316,2.98715 0.0283,0.0139 0.62187,-0.27568 2.42545,-1.18336 2.0017,-1.00738 2.39326,-1.19742 2.42052,-1.1748 0.057,0.0473 0.6994,0.7461 0.97131,1.05659 0.7291,0.83254 1.47192,1.80236 2.09664,2.73738 0.24463,0.36613 0.64086,0.99669 0.64086,1.01986 0,0.009 -0.3008,0.3617 -0.66845,0.78306 -0.36765,0.42136 -1.14973,1.31749 -1.73797,1.99141 -0.58823,0.67391 -1.07683,1.23799 -1.08576,1.25351 -0.0221,0.0383 1.75048,4.99241 1.80241,5.03757 0.0263,0.0229 0.23882,0.0669 0.64522,0.13357 3.25156,0.53379 4.62767,0.7671 4.63975,0.78664 0.008,0.0128 0.0199,0.0679 0.0268,0.12256 0.007,0.0546 0.0365,0.28703 0.0659,0.51639 0.16276,1.26859 0.23065,2.73396 0.18479,3.98845 -0.0302,0.82465 -0.0716,1.43804 -0.0987,1.46167 -0.011,0.01 -1.18464,0.28417 -2.60817,0.61029 -1.42352,0.32612 -2.59574,0.6004 -2.60492,0.60951 -0.0277,0.0275 -1.4943,5.07171 -1.48721,5.11502 0.004,0.0221 0.67115,0.71649 1.48342,1.54313 0.81226,0.82664 1.65287,1.68288 1.86802,1.90275 l 0.39118,0.39977 -0.16604,0.30596 c -0.82755,1.52488 -1.83649,3.00682 -2.97832,4.37461 -0.15956,0.19114 -0.30444,0.34752 -0.32195,0.34752 -0.0175,0 -0.82654,-0.33803 -1.79785,-0.75117 -2.95933,-1.25875 -3.12278,-1.32669 -3.15095,-1.30969 -0.0147,0.009 -0.96854,0.74277 -2.11953,1.63081 l -2.09271,1.61461 0.0123,0.0867 c 0.0348,0.24498 0.45988,3.13704 0.6001,4.08247 0.0887,0.59801 0.16126,1.10073 0.16126,1.11717 0,0.0342 -0.17074,0.12291 -0.71658,0.3722 -1.13622,0.51891 -2.50806,1.02682 -3.68984,1.36612 -0.44136,0.12672 -1.28029,0.34482 -1.3262,0.34479 -0.0192,-1e-5 -0.1561,-0.20885 -0.33996,-0.51847 -0.94446,-1.59042 -2.40699,-4.02993 -2.43177,-4.05621 -0.0249,-0.0264 -0.38252,-0.0211 -2.65525,0.0392 -1.44458,0.0383 -2.64597,0.0773 -2.66977,0.0866 -0.0294,0.0115 -0.23118,0.37591 -0.629612,1.13703 -0.322489,0.61604 -0.722504,1.37992 -0.888922,1.69749 -0.166418,0.31758 -0.459225,0.87816 -0.650682,1.24573 -0.295672,0.56764 -0.355017,0.66806 -0.394009,0.66666 -0.02525,-9e-4 -0.211248,-0.0336 -0.413331,-0.0726 z m 6.228391,-8.73726 c 3.56701,-0.25048 6.94744,-1.56562 9.72192,-3.78226 0.96892,-0.7741 1.9629,-1.76071 2.73185,-2.71156 1.27771,-1.57999 2.25743,-3.35844 2.94906,-5.35334 0.2672,-0.7707 0.2899,-0.84327 0.40474,-1.29384 0.2538,-0.99579 0.41521,-1.9774 0.50637,-3.07956 0.0439,-0.53107 0.0372,-2.17422 -0.0112,-2.71599 -0.19608,-2.19746 -0.72603,-4.17809 -1.62578,-6.07616 -2.073,-4.37312 -5.87588,-7.72486 -10.44169,-9.20297 -1.61826,-0.52389 -3.19227,-0.79875 -4.8984,-0.85538 -3.395214,-0.11269 -6.689798,0.73872 -9.614969,2.48479 -2.635719,1.57329 -4.872074,3.8975 -6.362648,6.61261 -2.634639,4.79903 -2.874227,10.63051 -0.641586,15.61595 1.21875,2.72144 3.139276,5.12401 5.532838,6.92154 1.613734,1.21189 3.467532,2.15085 5.407225,2.73879 0.522358,0.15834 1.288852,0.34951 1.517528,0.37849 0.100654,0.0128 0.30814,0.0463 0.461081,0.0746 0.745241,0.1377 1.605681,0.2318 2.513371,0.27486 0.28001,0.0133 1.51685,-0.007 1.85027,-0.0306 z m -1.5615,-1.73214 c -2.520124,-0.0937 -4.665192,-0.6313 -6.78075,-1.69943 -2.04873,-1.03439 -3.78905,-2.45481 -5.240765,-4.27744 -2.528801,-3.1749 -3.732777,-7.21333 -3.356836,-11.25962 0.385578,-4.15001 2.368742,-7.94323 5.555448,-10.62597 3.210572,-2.70283 7.382582,-4.01007 11.577803,-3.62774 3.09594,0.28215 6.03251,1.45966 8.42692,3.37905 3.77314,3.02459 5.93657,7.51805 5.93573,12.32853 -3.8e-4,2.15706 -0.41364,4.19153 -1.26201,6.21294 -0.1921,0.45769 -0.83693,1.72244 -1.06971,2.09809 -2.46369,3.97569 -6.53637,6.6513 -11.14412,7.32129 -0.91888,0.1336 -1.77724,0.18244 -2.64171,0.1503 z m 1.14438,-3.78537 c 3.29923,-0.22878 6.32838,-1.78255 8.46251,-4.34077 2.09528,-2.51165 3.07386,-5.85502 2.66965,-9.12104 -0.33075,-2.67256 -1.53339,-5.12609 -3.45367,-7.04597 -0.70828,-0.70812 -1.48601,-1.31339 -2.36298,-1.83899 -0.60191,-0.36075 -1.60205,-0.81674 -2.29946,-1.0484 -1.72492,-0.57297 -3.52982,-0.75009 -5.3369,-0.52372 -2.14122,0.26823 -4.243854,1.15613 -5.925136,2.50207 -1.204306,0.96411 -2.134927,2.02772 -2.918591,3.33567 -0.206517,0.34469 -0.630721,1.20713 -0.791177,1.60853 -0.577385,1.44442 -0.856637,2.89976 -0.856955,4.46611 -2.21e-4,1.08732 0.101865,1.93423 0.354711,2.94272 1.185231,4.72733 5.114849,8.27381 9.933938,8.96537 0.32152,0.0461 0.50288,0.0651 1.01604,0.1063 0.21064,0.0169 1.22725,0.0116 1.50802,-0.008 z"
         id="path36" /><path
         style="fill:#465d77"
         d="m 97.217742,170.81754 c -1.529532,-0.31239 -2.825439,-0.68872 -4.278074,-1.24233 -0.710044,-0.27061 -0.856388,-0.33693 -0.851656,-0.38596 0.0022,-0.0226 0.01962,-0.24313 0.03876,-0.49014 0.03464,-0.44696 0.353556,-4.09791 0.398758,-4.56496 l 0.02371,-0.24502 -0.08236,-0.0691 c -0.0453,-0.038 -0.07778,-0.0734 -0.07217,-0.0786 0.0056,-0.005 0.318216,-0.0868 0.694686,-0.18138 1.698646,-0.42665 3.342276,-0.9071 5.002484,-1.46229 0.877984,-0.29361 0.738874,-0.27764 1.403933,-0.16121 2.403577,0.42078 4.902947,0.32681 7.299647,-0.27445 3.57318,-0.89641 6.78928,-2.92308 9.19513,-5.79444 1.34212,-1.6018 2.43213,-3.54379 3.11727,-5.55382 0.0709,-0.20816 0.14312,-0.40576 0.16037,-0.43912 0.0173,-0.0333 0.24156,-0.25727 0.49846,-0.4976 0.5595,-0.52339 1.82482,-1.78446 2.32918,-2.32136 1.9059,-2.02884 3.64354,-4.16622 5.18465,-6.37736 0.0512,-0.0735 0.0991,-0.13366 0.10628,-0.13366 0.0178,0 0.93143,0.1624 1.15234,0.20484 0.0974,0.0187 0.21576,0.0369 0.26312,0.0404 0.0474,0.004 0.0898,0.0101 0.0943,0.0146 0.0127,0.0127 0.0901,0.58664 0.13789,1.0233 0.11548,1.05478 0.16208,2.09246 0.14357,3.19718 -0.0166,0.99411 -0.066,1.84804 -0.10751,1.8607 -0.0416,0.0127 -1.99849,0.46764 -3.62446,0.84264 -0.86269,0.19896 -1.57433,0.36755 -1.58143,0.37465 -0.007,0.007 -0.34754,1.15957 -0.75654,2.56104 -0.61172,2.09613 -0.73946,2.55592 -0.72014,2.59202 0.0129,0.0241 0.4483,0.47725 0.96752,1.00693 0.51922,0.52967 1.27567,1.30469 1.68101,1.72224 0.40533,0.41756 0.81254,0.83619 0.9049,0.93029 l 0.16793,0.17108 -0.10202,0.19247 c -0.73925,1.39471 -1.7734,2.93607 -2.86251,4.26647 -0.43791,0.53492 -0.47155,0.57086 -0.50708,0.54159 -0.0162,-0.0134 -0.46751,-0.2072 -1.00281,-0.43072 -0.53529,-0.22351 -1.6227,-0.68154 -2.41645,-1.01783 -0.79376,-0.33628 -1.45793,-0.61139 -1.47594,-0.61135 -0.0382,1e-4 -4.18909,3.20022 -4.22349,3.2561 -0.0174,0.0283 0.004,0.22608 0.0883,0.80197 0.0613,0.42039 0.2077,1.42356 0.32539,2.22927 0.1177,0.80571 0.23721,1.63335 0.2656,1.83918 0.0284,0.20584 0.058,0.38944 0.0658,0.40799 0.0113,0.0267 -0.0536,0.0662 -0.31283,0.19016 -1.35401,0.64753 -2.88258,1.21824 -4.34847,1.62355 -0.49946,0.1381 -0.98175,0.25906 -1.03291,0.25906 -0.0222,0 -0.0504,-0.0217 -0.0626,-0.0481 -0.0122,-0.0265 -0.21647,-0.3657 -0.45401,-0.75385 -0.23754,-0.38815 -0.84678,-1.39644 -1.35386,-2.24065 -0.66344,-1.10452 -0.93446,-1.53797 -0.96654,-1.54581 -0.0719,-0.0176 -5.29834,0.13406 -5.3186,0.15432 -0.0101,0.0101 -0.39014,0.72566 -0.844426,1.59005 -0.454286,0.86438 -1.00813,1.91382 -1.230766,2.33209 -0.222636,0.41826 -0.404792,0.77193 -0.404792,0.78592 0,0.0444 -0.142534,0.0263 -0.716578,-0.0909 z m 5.433158,-10.42192 c 0.0118,-0.0121 0.15133,-0.0771 0.31016,-0.14443 2.39593,-1.01645 4.98224,-2.32894 7.19598,-3.65178 1.91316,-1.14323 3.95413,-2.53112 5.61019,-3.815 0.20222,-0.15677 0.37277,-0.28504 0.37901,-0.28504 0.0638,0 -0.58309,1.00565 -1.03174,1.60393 -2.86403,3.81925 -7.31976,6.14558 -12.06788,6.30063 -0.2848,0.009 -0.41033,0.007 -0.39572,-0.008 z"
         id="path35" /><path
         style="fill:#3d556f"
         d="m 97.217742,170.80562 c -1.585834,-0.32258 -3.146997,-0.7874 -4.59893,-1.36928 -0.540403,-0.21657 -0.53043,-0.21183 -0.506805,-0.24103 0.01144,-0.0141 0.03652,-0.24224 0.05574,-0.50689 0.01922,-0.26465 0.04406,-0.59185 0.05519,-0.72712 0.0291,-0.35347 0.05818,-0.72763 0.118859,-1.52908 0.02939,-0.38816 0.08689,-1.08337 0.127785,-1.54493 0.09178,-1.03581 0.09149,-1.01596 0.01553,-1.07153 -0.04524,-0.0331 -0.05141,-0.0457 -0.02674,-0.0544 0.01765,-0.006 0.306417,-0.0799 0.641711,-0.16372 1.747716,-0.4367 3.725197,-1.02052 5.328117,-1.57304 0.524458,-0.18079 0.474682,-0.17635 0.971349,-0.0865 1.573942,0.28487 3.220992,0.34683 4.863832,0.18298 4.1732,-0.41623 8.05068,-2.31565 10.95734,-5.36757 1.7867,-1.87599 3.12795,-4.10183 3.93047,-6.52277 l 0.11045,-0.33319 0.55024,-0.51518 c 0.59107,-0.5534 1.92675,-1.88875 2.4658,-2.46519 0.64952,-0.69456 1.29488,-1.42057 1.88123,-2.11632 0.33647,-0.39925 0.37169,-0.44189 0.76998,-0.93226 0.61117,-0.75247 1.46437,-1.87773 2.09462,-2.76254 0.20317,-0.28523 0.37864,-0.5186 0.38992,-0.5186 0.0113,0 0.33802,0.0576 0.72608,0.12803 0.38806,0.0704 0.71708,0.12576 0.73116,0.12297 0.0296,-0.006 0.095,0.42301 0.16392,1.07492 0.0811,0.76778 0.12144,1.44774 0.13877,2.34174 0.0118,0.60768 -0.0446,2.29175 -0.0854,2.54929 -0.007,0.043 -0.0208,0.0647 -0.0374,0.0583 -0.0146,-0.006 -0.60385,0.12976 -1.30938,0.30083 -1.18922,0.28835 -2.54637,0.61034 -3.49594,0.82944 l -0.39499,0.0911 -0.0391,0.12784 c -0.0215,0.0703 -0.0907,0.30588 -0.15381,0.52348 -0.0631,0.2176 -0.38031,1.30534 -0.70494,2.41719 -0.32463,1.11186 -0.59023,2.04418 -0.59023,2.07181 0,0.0369 0.1354,0.18748 0.50902,0.56613 0.52412,0.53117 1.17859,1.20739 2.46692,2.54891 l 0.74065,0.77123 -0.032,0.0628 c -0.0176,0.0345 -0.13355,0.24564 -0.25768,0.46912 -0.55383,0.99711 -1.21657,2.01772 -1.9164,2.95124 -0.49744,0.66355 -1.163,1.47226 -1.19869,1.45651 -0.0127,-0.006 -0.62949,-0.25954 -1.37067,-0.56432 -0.74117,-0.30477 -1.84656,-0.76431 -2.45641,-1.02119 -0.93313,-0.39305 -1.11513,-0.46312 -1.1486,-0.44222 -0.0353,0.0221 -1.71246,1.31432 -3.51933,2.71172 -0.35368,0.27353 -0.65537,0.51215 -0.67041,0.53027 -0.0295,0.0356 -0.0381,-0.0337 0.1889,1.53154 0.0588,0.4058 0.16979,1.20456 0.24653,1.77502 0.12241,0.90984 0.2548,1.87805 0.273,1.99654 0.005,0.0322 -0.0664,0.074 -0.37892,0.22144 -1.46896,0.69326 -3.07426,1.27453 -4.64972,1.6836 -0.68559,0.17802 -0.64439,0.16989 -0.64439,0.12723 0,-0.0194 -0.0209,-0.0701 -0.0464,-0.11268 -0.0534,-0.089 -0.7322,-1.19094 -1.05549,-1.71339 -0.27546,-0.44516 -0.84056,-1.37465 -1.30345,-2.14392 l -0.3571,-0.59346 -0.30326,2e-5 c -0.1668,2e-5 -0.57279,0.009 -0.9022,0.0201 -0.64202,0.0216 -0.80638,0.0261 -2.79144,0.0771 -0.71177,0.0183 -1.31491,0.0375 -1.34031,0.0428 -0.0495,0.0102 -0.0419,-0.003 -0.632924,1.12172 -0.176108,0.33522 -0.397469,0.75385 -0.491913,0.93028 -0.257274,0.48062 -0.924574,1.71674 -1.090987,2.02096 -0.08043,0.14703 -0.191541,0.36065 -0.246922,0.4747 -0.05538,0.11406 -0.110319,0.20741 -0.122083,0.20745 -0.01176,4e-5 -0.300535,-0.0567 -0.641712,-0.12611 z m 5.625668,-10.4601 c 0.0588,-0.0262 0.29465,-0.12899 0.52407,-0.22839 2.00308,-0.86784 4.06815,-1.90371 5.96791,-2.99362 2.20682,-1.26606 4.31945,-2.67254 6.33155,-4.21522 0.20588,-0.15785 0.38836,-0.29759 0.40551,-0.31053 0.0431,-0.0326 -0.074,0.17245 -0.30601,0.53562 -1.61936,2.5347 -4.00447,4.6067 -6.73052,5.84695 -1.85764,0.84516 -3.949,1.34139 -5.90374,1.40083 l -0.39572,0.012 z"
         id="path34" /></g></g></svg>
