<?xml version="1.0" encoding="UTF-8" standalone="no"?>
<!-- Created with Inkscape (http://www.inkscape.org/) -->

<svg
   width="51.080959mm"
   height="51.221729mm"
   viewBox="0 0 51.080961 51.221731"
   version="1.1"
   id="svg1"
   xml:space="preserve"
   xmlns="http://www.w3.org/2000/svg"
   xmlns:svg="http://www.w3.org/2000/svg"><defs
     id="defs1" /><g
     id="layer1"
     transform="translate(-76.801261,-118.27248)"><g
       id="g26"
       transform="translate(-156.65156,1.0584614)"><path
         style="fill:#cad2d5"
         d="m 254.41676,168.43058 c -0.0294,-0.006 -0.5155,-0.0921 -1.08021,-0.19216 -0.56471,-0.10002 -2.83636,-0.50422 -5.04813,-0.89821 -2.21176,-0.394 -6.12884,-1.09174 -8.70461,-1.55053 -2.96264,-0.52771 -4.74126,-0.85366 -4.84119,-0.88721 -0.68019,-0.22833 -1.16712,-0.81902 -1.26545,-1.53508 -0.0324,-0.23608 -0.0325,-42.57265 -9e-5,-42.80973 0.10254,-0.74998 0.63774,-1.36225 1.37121,-1.56866 0.15781,-0.0444 0.5869,-0.0832 16.4364,-1.48545 1.80088,-0.15933 3.33136,-0.28962 3.40107,-0.28953 0.70619,9e-4 1.3699,0.43429 1.67554,1.0941 0.0455,0.0982 0.10062,0.24104 0.12255,0.31751 0.0388,0.13522 0.04,0.79647 0.0463,24.10695 0.005,17.78442 1.4e-4,24.00833 -0.0179,24.12456 -0.0923,0.59601 -0.47346,1.11608 -1.01964,1.39112 -0.2339,0.11778 -0.4774,0.17664 -0.7657,0.18509 -0.14118,0.004 -0.28075,0.003 -0.31017,-0.003 z m -2.68681,-23.14992 c 0.54464,-0.19143 0.98007,-0.96081 1.1028,-1.94859 0.0289,-0.23277 0.029,-0.77316 8e-5,-1.00647 -0.10462,-0.84507 -0.43314,-1.52842 -0.88306,-1.83681 -0.31301,-0.21454 -0.6999,-0.2145 -1.01253,1.1e-4 -0.45132,0.30981 -0.77821,0.98973 -0.88306,1.8367 -0.0289,0.23331 -0.0288,0.7737 8e-5,1.00647 0.1002,0.80642 0.40732,1.47496 0.8224,1.7902 0.27948,0.21225 0.55468,0.26334 0.85329,0.15839 z m 5.98168,21.47471 c -0.0347,-0.0648 -0.0303,-2.80576 0.005,-2.85299 0.0249,-0.0338 0.28075,-0.0366 3.77005,-0.0415 l 3.74332,-0.005 0.0107,-7.57219 0.0107,-7.57219 h 1.45454 1.45455 l 0.005,8.39572 c 0.005,8.33293 0.005,8.397 -0.0373,8.56684 -0.13493,0.53986 -0.53487,0.94616 -1.06473,1.08168 -0.1572,0.0402 -0.28549,0.0413 -4.74563,0.0413 -4.51024,0 -4.58442,-6.7e-4 -4.60621,-0.0414 z m 11.7373,-16.68055 -0.005,-2.88235 -5.83742,-0.005 c -4.27199,-0.004 -5.84518,-0.0118 -5.86631,-0.0294 -0.0241,-0.02 -0.0289,-0.90522 -0.0289,-5.35563 0,-4.45042 0.005,-5.33563 0.0289,-5.35563 0.0211,-0.0175 1.59432,-0.0254 5.86631,-0.0294 l 5.83742,-0.005 0.005,-2.8839 c 0.005,-2.58837 0.009,-2.8832 0.0385,-2.87701 0.0638,0.0133 15.04569,11.15085 15.04635,11.18546 3.8e-4,0.0205 -0.30078,0.25631 -0.75337,0.58984 -0.67129,0.49471 -11.31756,8.34931 -13.4385,9.91466 -0.45883,0.33863 -0.84622,0.61585 -0.86089,0.61605 -0.0211,2.8e-4 -0.0278,-0.5975 -0.0321,-2.882 z m -4.19865,-15.28327 c -0.006,-0.0148 -0.0125,-2.94346 -0.0154,-6.50817 l -0.005,-6.48128 -3.74332,-0.005 c -3.4893,-0.005 -3.74513,-0.008 -3.77005,-0.0415 -0.0349,-0.0472 -0.0393,-2.7882 -0.005,-2.85299 0.0218,-0.0407 0.096,-0.0414 4.60621,-0.0414 4.49235,0 4.58736,8.4e-4 4.74899,0.0422 0.53045,0.13567 0.92346,0.53625 1.06113,1.08158 0.0427,0.16923 0.043,0.219 0.0376,7.49656 l -0.005,7.3262 -1.44981,0.005 c -1.14854,0.004 -1.45193,-9e-5 -1.45999,-0.0214 z"
         id="path34" /><path
         style="fill:#a9d3c7"
         d="m 254.41676,168.40901 c -0.0294,-0.006 -0.43369,-0.0778 -0.89839,-0.16008 -0.46471,-0.0823 -4.54599,-0.8088 -9.06952,-1.6145 -4.52353,-0.80569 -8.52299,-1.51801 -8.8877,-1.58293 -0.38348,-0.0683 -0.73733,-0.14346 -0.83913,-0.17834 -0.57552,-0.19719 -1.02469,-0.69129 -1.18758,-1.30636 l -0.0482,-0.18182 v -21.42246 -21.42246 l 0.0476,-0.18181 c 0.0262,-0.1 0.0976,-0.28176 0.15883,-0.4039 0.0895,-0.17872 0.14649,-0.25911 0.2917,-0.4117 0.18972,-0.19936 0.38993,-0.34692 0.59191,-0.43624 0.24645,-0.109 0.40823,-0.1379 1.1346,-0.20273 0.79125,-0.0706 2.41133,-0.21403 9.42246,-0.83408 2.66471,-0.23566 5.87968,-0.52064 7.14439,-0.63328 1.76778,-0.15745 2.34645,-0.20214 2.50267,-0.19328 0.85886,0.0487 1.59063,0.71896 1.71048,1.56676 0.0175,0.12355 0.0222,6.58772 0.0177,24.12599 l -0.006,23.95722 -0.0591,0.18839 c -0.10103,0.32213 -0.25028,0.57291 -0.47431,0.79693 -0.34299,0.34299 -0.75335,0.51931 -1.242,0.53363 -0.14118,0.004 -0.28075,0.003 -0.31017,-0.003 z m -2.78219,-23.07848 c 0.19619,-0.0462 0.35209,-0.14232 0.53621,-0.33045 0.32089,-0.32789 0.54731,-0.84365 0.66679,-1.51884 0.0438,-0.24751 0.0371,-1.11043 -0.0106,-1.36898 -0.11726,-0.6353 -0.34133,-1.13227 -0.65619,-1.45536 -0.19093,-0.19591 -0.33981,-0.28547 -0.55399,-0.33324 -0.31596,-0.0705 -0.60344,0.0336 -0.88986,0.32225 -0.33177,0.3343 -0.55462,0.83779 -0.67744,1.53052 -0.0384,0.21646 -0.0384,1.08804 -6e-5,1.30481 0.12121,0.68496 0.34643,1.19353 0.6775,1.52984 0.29479,0.29947 0.5746,0.39795 0.90764,0.31945 z m 6.0893,21.41099 c -0.0195,-0.0508 -0.015,-2.79618 0.005,-2.82706 0.0134,-0.0211 0.80006,-0.0278 3.76972,-0.0321 l 3.75279,-0.005 0.005,-7.57769 0.005,-7.57769 1.43848,0.006 1.43847,0.006 v 8.42781 8.4278 l -0.0499,0.16043 c -0.077,0.24759 -0.1821,0.41819 -0.37584,0.60994 -0.1999,0.19784 -0.39323,0.30993 -0.64615,0.37462 -0.16163,0.0413 -0.25664,0.0422 -4.74746,0.0422 -4.15893,0 -4.58372,-0.003 -4.5955,-0.0338 z m 11.74645,-16.70722 -0.005,-2.88461 -5.85561,-0.005 -5.85562,-0.005 v -5.33682 -5.33682 l 5.85562,-0.005 5.85561,-0.005 0.005,-2.88461 c 0.005,-2.39598 0.0103,-2.88275 0.034,-2.87365 0.0157,0.006 0.55713,0.40351 1.20314,0.88328 1.20202,0.8927 3.28187,2.43692 3.98413,2.95807 0.21585,0.16018 0.56719,0.4213 0.78075,0.58026 0.21355,0.15896 0.74443,0.55323 1.17973,0.87616 0.43529,0.32293 1.64813,1.22329 2.69519,2.0008 1.04705,0.77751 2.61604,1.94159 3.48663,2.58683 0.87059,0.64525 1.60449,1.19361 1.6309,1.21858 l 0.048,0.0454 -1.68437,1.24246 c -0.92641,0.68336 -2.11272,1.55849 -2.63625,1.94474 -0.52353,0.38624 -1.91926,1.41586 -3.10161,2.28804 -1.18235,0.87217 -3.36663,2.48364 -4.85395,3.58104 -1.48732,1.0974 -2.71696,2.00017 -2.73254,2.00614 -0.0234,0.009 -0.0293,-0.49028 -0.0337,-2.87374 z m -4.20864,-21.71693 c 0,-3.56383 -0.006,-6.49491 -0.013,-6.51352 -0.0118,-0.0307 -0.36316,-0.0338 -3.76242,-0.0338 -3.39926,0 -3.75064,-0.003 -3.76241,-0.0338 -0.017,-0.0442 -0.017,-2.77583 0,-2.82003 0.0118,-0.0307 0.43657,-0.0338 4.5955,-0.0338 4.49082,0 4.58583,8.4e-4 4.74746,0.0422 0.25292,0.0647 0.44625,0.17678 0.64615,0.37462 0.19374,0.19175 0.29887,0.36235 0.37584,0.60994 l 0.0499,0.16043 v 7.35829 7.35828 l -1.4385,0.006 -1.43851,0.006 z"
         id="path33" /><path
         style="fill:#a6aeb6"
         d="m 254.41676,168.40706 c -0.0294,-0.005 -1.42994,-0.25455 -3.11229,-0.55402 -1.68236,-0.29946 -3.97327,-0.70734 -5.09091,-0.90639 -1.11765,-0.19904 -4.06311,-0.72343 -6.54546,-1.16531 -2.48235,-0.44187 -4.59037,-0.8186 -4.68449,-0.83718 -0.35153,-0.0694 -0.65215,-0.2258 -0.91563,-0.47639 -0.27315,-0.25979 -0.46021,-0.58586 -0.54595,-0.95165 -0.0333,-0.14199 -0.0358,-1.63085 -0.0358,-21.5536 0,-19.92274 0.002,-21.4116 0.0358,-21.55359 0.16202,-0.69123 0.7052,-1.24982 1.37055,-1.40943 0.0736,-0.0177 0.83648,-0.0947 1.69531,-0.17121 1.31558,-0.1172 12.72725,-1.12727 16.8422,-1.49074 1.16664,-0.10305 1.26209,-0.10859 1.45376,-0.0844 0.80615,0.10182 1.44418,0.70087 1.59527,1.49781 0.0308,0.16257 0.0339,2.35398 0.0336,24.08557 -2.7e-4,23.25478 -10e-4,23.91197 -0.0402,24.09924 -0.15569,0.75054 -0.74291,1.32385 -1.48929,1.45401 -0.17545,0.0306 -0.44553,0.0388 -0.56648,0.0173 z m -2.7708,-23.07626 c 0.45009,-0.11723 0.83338,-0.57999 1.05599,-1.27491 0.13557,-0.42322 0.16395,-0.63563 0.16395,-1.22706 0,-0.47446 -0.006,-0.56238 -0.0496,-0.77977 -0.19894,-0.98313 -0.66023,-1.63002 -1.23913,-1.73767 -0.55269,-0.10279 -1.1119,0.41555 -1.39213,1.29039 -0.13557,0.42321 -0.16395,0.63563 -0.16395,1.22705 0,0.47447 0.006,0.56239 0.0496,0.77978 0.18914,0.93474 0.62183,1.5761 1.16115,1.72113 0.15158,0.0408 0.26062,0.0411 0.41412,0.001 z m 6.08631,20.00105 v -1.44407 l 3.75936,-0.005 3.75936,-0.005 0.0107,-7.57219 0.0107,-7.57219 h 1.43315 1.43316 v 8.4385 8.4385 l -0.066,0.18434 c -0.15737,0.43957 -0.48063,0.76012 -0.92865,0.92086 l -0.13904,0.0499 -4.63636,0.006 -4.63637,0.006 z m 7.53941,-30.56169 c -0.006,-0.0148 -0.0125,-2.94346 -0.0154,-6.50817 l -0.005,-6.48128 -3.75936,-0.005 -3.75936,-0.005 v -1.44379 -1.44379 l 4.5722,3.7e-4 c 5.09182,4.2e-4 4.71959,-0.0107 5.04638,0.15115 0.33285,0.16488 0.59634,0.47021 0.72761,0.84313 l 0.0602,0.17113 v 7.36898 7.36898 l -1.42842,0.006 c -1.13143,0.004 -1.43054,-9e-5 -1.43859,-0.0214 z"
         id="path32" /><path
         style="fill:#949da7"
         d="m 254.29912,168.37736 c -0.0588,-0.0118 -4.45295,-0.79545 -9.76473,-1.7415 -5.31178,-0.94606 -9.71294,-1.73908 -9.78036,-1.76228 -0.64688,-0.22256 -1.11521,-0.77048 -1.23457,-1.4444 -0.0316,-0.17855 -0.0316,-42.75476 0,-42.93332 0.10044,-0.56707 0.45287,-1.05714 0.94583,-1.31523 0.19398,-0.10155 0.35507,-0.15995 0.52496,-0.19031 0.0669,-0.012 1.48855,-0.14251 3.15913,-0.2901 3.20612,-0.28326 3.78386,-0.33441 11.48664,-1.01701 5.456,-0.4835 5.218,-0.46899 5.59879,-0.34137 0.39261,0.13158 0.72642,0.38583 0.95479,0.72724 0.13379,0.20002 0.24305,0.46845 0.28046,0.68906 0.0162,0.0953 0.0211,7.17593 0.0169,24.15626 l -0.006,24.02139 -0.0704,0.2032 c -0.10042,0.28981 -0.23836,0.51028 -0.45451,0.72642 -0.21763,0.21763 -0.43936,0.3558 -0.72641,0.45266 -0.1859,0.0627 -0.22963,0.0691 -0.51337,0.0746 -0.17059,0.003 -0.35829,-0.004 -0.41711,-0.0153 z m -2.45799,-23.10888 c 0.80179,-0.39627 1.24753,-1.90889 0.96962,-3.29041 -0.15516,-0.77128 -0.51914,-1.36624 -0.97309,-1.59059 -0.16246,-0.0803 -0.17396,-0.0827 -0.39416,-0.0827 -0.2202,0 -0.2317,0.002 -0.39416,0.0827 -1.09539,0.54137 -1.42025,2.97525 -0.57757,4.32727 0.12265,0.19679 0.34132,0.4249 0.49017,0.51134 0.19171,0.11133 0.30109,0.13924 0.51654,0.1318 0.17669,-0.006 0.21143,-0.0147 0.36265,-0.0894 z m 5.91788,21.49289 c -0.021,-0.009 -0.0267,-0.31475 -0.0267,-1.42936 0,-1.27365 0.003,-1.41971 0.0338,-1.43137 0.0186,-0.007 1.71272,-0.013 3.7647,-0.013 h 3.73087 v -7.55888 c 0,-6.35047 0.005,-7.56274 0.0291,-7.58304 0.0211,-0.0175 0.41244,-0.0227 1.42781,-0.0187 l 1.39869,0.006 0.005,8.40579 c 0.005,7.42833 0.002,8.42079 -0.0268,8.53476 -0.0177,0.0709 -0.072,0.21078 -0.12068,0.31078 -0.11889,0.24438 -0.38001,0.5089 -0.61721,0.62526 -0.347,0.17021 0.13351,0.15489 -4.99465,0.15926 -2.51765,0.002 -4.58957,-0.001 -4.60428,-0.007 z m 7.5285,-31.99014 c -0.0201,-0.02 -0.0258,-1.47479 -0.0258,-6.51352 v -6.4877 h -3.73087 c -2.05198,0 -3.74609,-0.006 -3.7647,-0.013 -0.0304,-0.0117 -0.0338,-0.15784 -0.0338,-1.43275 v -1.41976 l 0.0481,-0.0118 c 0.0265,-0.006 2.0984,-0.009 4.60428,-0.006 5.1032,0.007 4.62649,-0.009 4.97326,0.16142 0.2372,0.11636 0.49832,0.38088 0.61721,0.62525 0.16763,0.34457 0.15352,-0.39914 0.14753,7.77605 l -0.005,7.33625 -1.40199,0.006 c -1.07267,0.004 -1.40805,-5.6e-4 -1.4278,-0.0203 z"
         id="path31" /><path
         style="fill:#838d9a"
         d="m 254.41676,168.38584 c -0.69709,-0.12204 -19.11478,-3.40344 -19.3155,-3.44137 -0.33274,-0.0629 -0.53901,-0.13897 -0.75454,-0.2784 -0.3996,-0.2585 -0.67747,-0.65197 -0.80153,-1.13501 -0.0356,-0.13877 -0.0375,-1.21779 -0.0375,-21.56854 0,-20.35074 0.002,-21.42976 0.0375,-21.56853 0.18999,-0.73973 0.75352,-1.27345 1.47245,-1.39456 0.1107,-0.0186 3.08896,-0.28855 6.61838,-0.59978 6.71692,-0.59231 9.10015,-0.80288 11.49142,-1.01528 0.79087,-0.0703 1.49836,-0.1276 1.57219,-0.12745 0.30863,6.5e-4 0.69825,0.12301 0.97205,0.30528 0.36691,0.24426 0.61964,0.59173 0.7606,1.04575 l 0.0487,0.15671 0.006,23.96792 c 0.004,16.84833 -9.7e-4,24.01239 -0.017,24.11764 -0.0552,0.36347 -0.22368,0.7014 -0.48717,0.9772 -0.27383,0.28661 -0.57472,0.45458 -0.95481,0.53303 -0.17857,0.0369 -0.47515,0.0492 -0.61102,0.0254 z m -2.67129,-23.06401 c 0.54842,-0.20838 0.98697,-0.95417 1.1194,-1.90361 0.0419,-0.30039 0.0426,-0.88161 0.001,-1.17164 -0.10435,-0.73399 -0.35437,-1.29875 -0.73312,-1.656 -0.43876,-0.41385 -0.94037,-0.41385 -1.37914,0 -0.39154,0.36932 -0.65035,0.97425 -0.74452,1.74021 -0.0342,0.27805 -0.0159,0.96821 0.0328,1.23601 0.0474,0.26098 0.16022,0.63415 0.25375,0.8394 0.23099,0.50687 0.61288,0.88096 0.97646,0.9565 0.12924,0.0269 0.34359,0.008 0.47309,-0.0409 z m 6.00819,20.00992 v -1.4227 h 3.73904 c 2.87962,0 3.74494,-0.006 3.76471,-0.0257 0.0199,-0.0199 0.0257,-1.73357 0.0257,-7.58289 v -7.55722 h 1.42262 1.42262 l -0.005,8.43316 -0.006,8.43315 -0.066,0.18434 c -0.15352,0.42882 -0.4584,0.7346 -0.88941,0.89204 l -0.15689,0.0573 -4.62567,0.006 -4.62567,0.006 z m 7.52941,-37.04409 c 0,-5.01747 -0.006,-6.49352 -0.0257,-6.51337 -0.0198,-0.0198 -0.88509,-0.0257 -3.76471,-0.0257 h -3.73904 v -1.4227 -1.4227 l 4.62567,0.006 4.62567,0.006 0.15689,0.0573 c 0.43101,0.15744 0.73589,0.46322 0.88941,0.89204 l 0.066,0.18434 0.006,7.36363 0.006,7.36364 h -1.42264 -1.42265 z"
         id="path30" /><path
         style="fill:#798491"
         d="m 254.48094,168.38685 c -0.0412,-0.005 -2.80375,-0.49572 -6.13904,-1.08956 -3.3353,-0.59384 -7.71497,-1.37348 -9.73262,-1.73252 -2.01765,-0.35905 -3.73224,-0.67157 -3.81021,-0.6945 -0.57482,-0.16903 -1.04784,-0.6539 -1.22088,-1.25145 l -0.0491,-0.16966 v -21.48664 -21.48663 l 0.0491,-0.16966 c 0.14558,-0.50273 0.49324,-0.9189 0.9581,-1.14687 0.27308,-0.13392 0.42721,-0.16143 1.36711,-0.24403 0.84452,-0.0742 2.50304,-0.22078 4.60962,-0.40737 1.15664,-0.10245 2.78226,-0.24622 8.70588,-0.76997 2.06471,-0.18256 4.13807,-0.36608 4.60747,-0.40783 0.75373,-0.067 0.87621,-0.0732 1.04813,-0.0524 0.75048,0.0907 1.36411,0.62978 1.55861,1.36923 l 0.0478,0.18181 v 24 24 l -0.0483,0.18182 c -0.10114,0.38041 -0.32868,0.73587 -0.62602,0.97793 -0.17287,0.14075 -0.47263,0.29194 -0.687,0.34651 -0.1663,0.0423 -0.50288,0.0696 -0.63864,0.0518 z m -2.77611,-23.04433 c 0.50842,-0.15704 0.94678,-0.80624 1.11811,-1.6559 0.23893,-1.18486 -0.0291,-2.44836 -0.65175,-3.07242 -0.75715,-0.75885 -1.71859,-0.20341 -2.07471,1.19859 -0.18279,0.71958 -0.14788,1.65538 0.0866,2.32303 0.32412,0.92272 0.91755,1.3933 1.52171,1.2067 z m 6.04883,19.98905 v -1.4224 l 3.75936,-0.005 3.75936,-0.005 0.0107,-7.57219 0.0107,-7.57219 h 1.41176 1.41177 v 8.39572 c 0,8.00199 -0.002,8.40224 -0.0383,8.53476 -0.0714,0.25914 -0.17948,0.44329 -0.37826,0.64436 -0.14979,0.1515 -0.21486,0.19998 -0.36419,0.27131 -0.34551,0.16504 0.0217,0.15385 -5.04723,0.15385 h -4.53566 z m 7.53941,-30.5828 c -0.006,-0.0148 -0.0125,-2.94346 -0.0154,-6.50817 l -0.005,-6.48128 -3.75936,-0.005 -3.75936,-0.005 v -1.4224 -1.4224 h 4.53566 c 5.06898,0 4.70172,-0.0112 5.04723,0.15385 0.14933,0.0713 0.2144,0.11981 0.36419,0.27131 0.19878,0.20107 0.30688,0.38521 0.37826,0.64436 0.0365,0.13236 0.0383,0.49102 0.0383,7.46524 v 7.3262 l -1.40703,0.006 c -1.11431,0.004 -1.40915,-9e-5 -1.4172,-0.0214 z"
         id="path29" /><path
         style="fill:#6c7886"
         d="m 254.32051,168.35495 c -0.0588,-0.0109 -3.56738,-0.636 -7.79679,-1.38903 -4.22942,-0.75303 -8.57961,-1.52778 -9.66711,-1.72168 -1.18867,-0.21194 -2.03587,-0.37292 -2.1242,-0.40364 -0.55074,-0.19153 -0.99054,-0.66542 -1.15562,-1.24521 l -0.0477,-0.16762 -0.006,-21.39038 c -0.005,-19.42752 -0.002,-21.40706 0.0283,-21.57219 0.13401,-0.72027 0.6988,-1.29803 1.41037,-1.44273 0.20555,-0.0418 19.45227,-1.74444 19.71925,-1.74444 0.81692,0 1.53419,0.56339 1.73746,1.36471 l 0.0513,0.20228 -1.5e-4,23.98121 c -1.5e-4,23.88347 -3.2e-4,23.98194 -0.0428,24.15914 -0.16372,0.6829 -0.71508,1.22072 -1.39465,1.36038 -0.17955,0.0369 -0.53833,0.0415 -0.71213,0.009 z M 251.71432,145.346 c 0.53445,-0.16684 0.97959,-0.86375 1.14325,-1.78989 0.0703,-0.39805 0.0706,-1.05367 5.6e-4,-1.45455 -0.0788,-0.4513 -0.2606,-0.93905 -0.45786,-1.22866 -0.10498,-0.15413 -0.33532,-0.38256 -0.46431,-0.46049 -0.15494,-0.0936 -0.31753,-0.13973 -0.49246,-0.13973 -0.17493,0 -0.33752,0.0461 -0.49245,0.13973 -0.12929,0.0781 -0.35938,0.30644 -0.46494,0.4614 -0.11702,0.17179 -0.25503,0.47099 -0.33443,0.72508 -0.43298,1.38538 -0.0557,3.10579 0.79984,3.64726 0.21515,0.13617 0.51902,0.17595 0.7628,0.0999 z m 6.04932,21.38161 c -0.006,-0.0149 -0.008,-0.65279 -0.005,-1.41749 l 0.006,-1.39038 3.75933,-0.005 3.75933,-0.005 0.005,-7.57748 0.005,-7.57748 h 1.40107 1.40107 v 8.4385 8.4385 l -0.0573,0.15689 c -0.16387,0.44862 -0.47626,0.74688 -0.94804,0.90517 l -0.14973,0.0502 -4.58341,0.006 c -3.68565,0.005 -4.58545,4.2e-4 -4.59378,-0.0214 z m 7.52943,-31.97883 c -0.006,-0.0148 -0.0125,-2.94347 -0.0154,-6.50818 l -0.005,-6.48128 -3.75401,-0.0107 -3.75401,-0.0107 v -1.41177 -1.41176 h 4.57754 4.57754 l 0.16043,0.0501 c 0.25436,0.0794 0.44037,0.18836 0.60852,0.35638 0.17097,0.17085 0.26719,0.32167 0.35021,0.54894 l 0.0573,0.15689 v 7.36898 7.36898 l -1.39633,0.006 c -1.10576,0.004 -1.39846,-1e-4 -1.40651,-0.0214 z"
         id="path28" /><path
         style="fill:#606d7c"
         d="m 254.48094,168.36563 c -0.0715,-0.009 -1.11124,-0.19324 -3.85027,-0.68137 -0.68824,-0.12265 -2.22353,-0.39612 -3.41177,-0.60771 -1.18823,-0.21158 -3.08449,-0.54934 -4.2139,-0.75058 -1.12941,-0.20124 -2.89091,-0.51491 -3.91444,-0.69705 -4.2918,-0.76373 -4.24275,-0.75458 -4.41384,-0.82309 -0.56337,-0.22558 -0.9829,-0.72292 -1.10308,-1.30764 -0.0308,-0.14981 -0.0339,-2.11966 -0.0337,-21.55081 1.5e-4,-21.29075 3.4e-4,-21.38672 0.0428,-21.56385 0.15756,-0.65723 0.68889,-1.192 1.33157,-1.34019 0.0734,-0.0169 0.51853,-0.0649 0.98912,-0.1065 0.47058,-0.0417 2.05401,-0.18161 3.51871,-0.31103 1.46471,-0.12943 2.76899,-0.24479 2.8984,-0.25637 0.12941,-0.0116 1.32781,-0.1177 2.6631,-0.23584 2.45035,-0.21679 2.85872,-0.25296 7.25134,-0.64235 2.25144,-0.19957 2.44242,-0.21354 2.62902,-0.19223 0.32296,0.0369 0.59932,0.14327 0.8478,0.32634 0.35142,0.25892 0.57829,0.58874 0.70138,1.01966 l 0.0464,0.16242 0.006,23.90375 c 0.004,17.11141 -5.7e-4,23.95541 -0.0172,24.08556 -0.0922,0.7217 -0.63678,1.33939 -1.33948,1.51943 -0.15661,0.0401 -0.49433,0.0667 -0.62794,0.0495 z m -2.77612,-23.00172 c 1.07722,-0.33272 1.58006,-2.48252 0.94568,-4.0431 -0.11611,-0.28562 -0.25736,-0.50369 -0.45833,-0.70758 -0.20788,-0.21089 -0.37578,-0.30675 -0.60646,-0.34627 -0.18431,-0.0316 -0.37641,-8e-5 -0.56784,0.0931 -0.185,0.09 -0.46576,0.37179 -0.60615,0.60829 -0.55686,0.93807 -0.60806,2.41763 -0.12093,3.49449 0.14968,0.33088 0.45456,0.69033 0.69569,0.82019 0.23153,0.1247 0.48434,0.15317 0.71834,0.0809 z m 6.07023,19.9676 v -1.40107 h 3.73904 c 2.87962,0 3.74494,-0.006 3.76471,-0.0257 0.0199,-0.0199 0.0257,-1.73357 0.0257,-7.58289 v -7.55722 h 1.40125 1.40126 l -0.006,8.40107 c -0.005,8.00775 -0.007,8.40705 -0.0439,8.52868 -0.12212,0.40618 -0.38631,0.72142 -0.75308,0.89856 -0.30745,0.14849 0.0108,0.13961 -5.00445,0.13961 h -4.52497 z m 7.52942,-37.06524 c 0,-5.01747 -0.006,-6.49352 -0.0257,-6.51337 -0.0198,-0.0198 -0.88509,-0.0257 -3.76471,-0.0257 h -3.73904 v -1.40107 -1.40107 h 4.52497 c 5.04907,0 4.69774,-0.0105 5.02584,0.15086 0.29542,0.14534 0.55381,0.4237 0.67445,0.72658 0.10971,0.27546 0.10475,-0.0864 0.10555,7.69475 l 7.4e-4,7.25669 h -1.40107 -1.40106 z"
         id="path27" /><path
         style="fill:#5f6c7b"
         d="m 254.95676,168.28873 c 0.0136,-0.0411 0.10172,-0.0471 0.10172,-0.007 0,0.0218 -0.0193,0.0336 -0.0553,0.0336 -0.0346,0 -0.052,-0.01 -0.0465,-0.0267 z m -1.24588,-0.0769 c 0,-0.0285 0.0772,-0.11023 0.10412,-0.11023 0.0364,0 0.0291,0.0363 -0.0103,0.0514 -0.0279,0.0107 -0.0295,0.0193 -0.008,0.0451 0.0223,0.0268 0.0176,0.0318 -0.0297,0.0318 -0.0308,0 -0.0561,-0.008 -0.0561,-0.0181 z m 1.51872,-0.0247 c 0.0415,-0.0268 0.0642,-0.0268 0.0642,0 0,0.0118 -0.0217,0.0213 -0.0481,0.0211 -0.0389,-2.7e-4 -0.042,-0.004 -0.016,-0.0211 z m -1.73093,-0.0339 c 0.001,-0.0249 0.006,-0.03 0.0129,-0.0129 0.006,0.0154 0.005,0.0339 -0.002,0.041 -0.007,0.007 -0.0122,-0.006 -0.0112,-0.0281 z m 1.89136,0.0125 c 0.007,-0.0118 0.0277,-0.0214 0.0453,-0.0214 0.0177,0 0.0261,0.01 0.0189,0.0214 -0.007,0.0118 -0.0277,0.0214 -0.0453,0.0214 -0.0176,0 -0.0261,-0.01 -0.0189,-0.0214 z m -2.13369,-0.0783 c 0.0147,-0.006 0.0388,-0.006 0.0535,0 0.0147,0.006 0.003,0.0108 -0.0267,0.0108 -0.0294,0 -0.0414,-0.005 -0.0267,-0.0108 z m -0.58289,-0.0714 c -0.007,-0.0118 0.001,-0.0214 0.0189,-0.0214 0.0177,0 0.038,0.01 0.0453,0.0214 0.007,0.0118 -0.001,0.0214 -0.0189,0.0214 -0.0176,0 -0.038,-0.01 -0.0453,-0.0214 z m 0.0963,-0.006 c 0,-0.0151 0.0192,-0.0275 0.0428,-0.0275 0.0235,0 0.0428,0.0124 0.0428,0.0275 0,0.0151 -0.0192,0.0275 -0.0428,0.0275 -0.0235,0 -0.0428,-0.0124 -0.0428,-0.0275 z m 2.92438,-0.037 c 0.006,-0.0233 0.0244,-0.0424 0.0407,-0.0424 0.0429,0 0.0363,0.0377 -0.0111,0.0631 -0.0346,0.0185 -0.039,0.0154 -0.0296,-0.0206 z m -3.18107,-0.021 c 0,-0.0235 0.009,-0.0428 0.0194,-0.0428 0.0107,0 0.0144,0.0192 0.008,0.0428 -0.006,0.0235 -0.0149,0.0428 -0.0194,0.0428 -0.005,0 -0.008,-0.0192 -0.008,-0.0428 z m -0.34224,-0.0214 c 0.0421,-0.0273 0.12834,-0.0273 0.12834,0 0,0.0118 -0.0361,0.0212 -0.0802,0.0211 -0.0597,-2.4e-4 -0.072,-0.006 -0.0481,-0.0211 z m 3.61497,-0.0535 c 0,-0.0581 0.02,-0.0677 0.0594,-0.0283 0.0184,0.0184 0.0188,0.0328 0.002,0.0535 -0.0364,0.0438 -0.061,0.0336 -0.061,-0.0252 z m -4.04278,-0.0107 c -0.0507,-0.0162 -0.0498,-0.0172 0.016,-0.0193 0.0382,-0.001 0.0695,0.007 0.0695,0.0193 0,0.0242 -0.0101,0.0242 -0.0856,0 z m 0.17112,0 c 0,-0.0118 0.01,-0.0214 0.0214,-0.0214 0.0118,0 0.0214,0.01 0.0214,0.0214 0,0.0118 -0.01,0.0214 -0.0214,0.0214 -0.0118,0 -0.0214,-0.01 -0.0214,-0.0214 z m -0.57754,-0.0856 c 0,-0.0118 0.0102,-0.0214 0.0226,-0.0214 0.0125,0 0.0167,0.01 0.009,0.0214 -0.007,0.0118 -0.0175,0.0214 -0.0227,0.0214 -0.005,0 -0.009,-0.01 -0.009,-0.0214 z m 0.49198,0 c 0,-0.0118 0.015,-0.0214 0.0334,-0.0214 0.0183,0 0.0274,0.01 0.0201,0.0214 -0.007,0.0118 -0.0223,0.0214 -0.0334,0.0214 -0.0111,0 -0.0201,-0.01 -0.0201,-0.0214 z m -0.65241,-0.0214 c -0.007,-0.0118 0.007,-0.0214 0.0308,-0.0214 0.0242,0 0.044,0.01 0.044,0.0214 0,0.0118 -0.0139,0.0214 -0.0308,0.0214 -0.017,0 -0.0368,-0.01 -0.044,-0.0214 z m 0.52941,-0.0147 c 0.0206,-0.005 0.0543,-0.005 0.0749,0 0.0206,0.005 0.004,0.01 -0.0374,0.01 -0.0412,0 -0.058,-0.004 -0.0374,-0.01 z m 4.28398,-0.0485 c -0.008,-0.0124 0.001,-0.0285 0.0204,-0.0358 0.0471,-0.0181 0.0617,0.002 0.0242,0.0329 -0.0211,0.0175 -0.0351,0.0184 -0.0446,0.003 z m -5.12409,-0.055 c -0.0242,-0.0292 -0.0239,-0.0378 0.002,-0.0541 0.057,-0.0361 0.12696,-0.0236 0.12696,0.0227 0,0.0235 -0.009,0.0428 -0.0196,0.0428 -0.0108,0 -0.0333,0.005 -0.05,0.0117 -0.0167,0.006 -0.0434,-0.004 -0.0592,-0.023 z m 5.07541,0.01 c 0.0206,-0.012 0.0374,-0.0358 0.0374,-0.0528 0,-0.0171 0.0144,-0.031 0.0321,-0.031 0.0176,0 0.0321,0.009 0.0321,0.0189 0,0.0206 -0.0949,0.0884 -0.12224,0.0874 -0.009,-3.5e-4 5e-5,-0.0105 0.0206,-0.0224 z m -5.20452,0.002 c -10e-4,-0.006 -0.005,-0.0275 -0.009,-0.0481 -0.004,-0.0206 0.001,-0.0374 0.0111,-0.0374 0.0306,0 0.0404,0.0324 0.0197,0.0652 -0.0108,0.0171 -0.0205,0.0263 -0.0216,0.0204 z m -0.40511,-0.0642 c 0,-0.0118 0.0102,-0.0214 0.0227,-0.0214 0.0125,0 0.0167,0.01 0.009,0.0214 -0.007,0.0118 -0.0175,0.0214 -0.0226,0.0214 -0.005,0 -0.009,-0.01 -0.009,-0.0214 z m -0.26665,-0.0179 c -0.0671,-0.008 -0.16115,-0.0915 -0.16115,-0.14362 0,-0.0229 0.0279,-0.031 0.10762,-0.031 0.11722,0 0.13545,0.0178 0.12383,0.12096 -0.006,0.0536 -0.0144,0.06 -0.0703,0.0536 z m -0.22533,-0.0463 c -0.0258,-0.0167 -0.0224,-0.0208 0.0173,-0.0211 0.0275,-1.8e-4 0.0435,0.009 0.0362,0.0211 -0.0159,0.0257 -0.0137,0.0257 -0.0535,0 z m -0.0856,-0.10695 c 0,-0.0118 0.01,-0.0214 0.0214,-0.0214 0.0118,0 0.0214,0.01 0.0214,0.0214 0,0.0118 -0.01,0.0214 -0.0214,0.0214 -0.0118,0 -0.0214,-0.01 -0.0214,-0.0214 z m 6.46399,-0.15082 c -0.004,-0.13608 0.008,-0.15173 0.0652,-0.0852 0.0324,0.0378 0.0329,0.0496 0.005,0.11619 -0.0481,0.1152 -0.0665,0.1071 -0.0703,-0.031 z m -7.27682,0.0724 c 0,-0.0157 0.0144,-0.0285 0.0321,-0.0285 0.0387,0 0.043,-0.0562 0.005,-0.0714 -0.0147,-0.006 0.009,-0.0115 0.0535,-0.0125 0.0441,-9.3e-4 0.0802,0.008 0.0802,0.0197 0,0.0118 -0.0155,0.0214 -0.0344,0.0214 -0.0254,0 -0.0311,0.0131 -0.0219,0.0499 0.011,0.0439 0.005,0.0499 -0.0512,0.0499 -0.0388,0 -0.0637,-0.0111 -0.0637,-0.0285 z m -0.16578,-0.001 c -0.0422,-0.0151 -0.0311,-0.0488 0.0161,-0.0488 0.0235,0 0.0428,0.009 0.0428,0.0201 0,0.0274 -0.0265,0.0403 -0.0588,0.0287 z m -0.4681,-0.0962 c -0.006,-0.009 0.0335,-0.0168 0.0872,-0.0168 0.0536,0 0.0975,0.004 0.0975,0.008 0,0.0168 -0.17458,0.0247 -0.18468,0.008 z m 0.3304,-0.01 c 0.0154,-0.006 0.0339,-0.005 0.041,0.002 0.007,0.007 -0.006,0.0122 -0.0281,0.0112 -0.0249,-0.001 -0.03,-0.006 -0.0129,-0.0129 z m -1.06016,-0.1076 c -0.0147,-0.005 -0.0267,-0.0233 -0.0267,-0.04 0,-0.0206 0.025,-0.0303 0.0784,-0.0303 0.0431,0 0.0744,0.003 0.0695,0.006 -0.005,0.003 -0.0282,0.0211 -0.0517,0.04 -0.0235,0.0189 -0.0548,0.0301 -0.0695,0.0247 z m -0.10932,-0.0252 c -0.016,-0.0101 -0.0462,-0.014 -0.0671,-0.009 -0.0209,0.005 -0.0445,-5.2e-4 -0.0524,-0.0133 -0.01,-0.0154 0.0182,-0.0233 0.0825,-0.0233 0.0773,0 0.0944,0.006 0.0845,0.0321 -0.0144,0.0374 -0.0106,0.0364 -0.0475,0.013 z m -0.22089,-0.0383 c 0.0154,-0.006 0.0339,-0.005 0.041,0.002 0.007,0.007 -0.006,0.0122 -0.0281,0.0112 -0.0249,-0.001 -0.03,-0.006 -0.0129,-0.0129 z m -0.15039,-0.0185 c -0.008,-0.009 -0.0563,-0.0192 -0.10632,-0.0237 -0.0509,-0.005 -0.0988,-0.0222 -0.10869,-0.0399 -0.01,-0.0174 -0.0403,-0.0317 -0.0679,-0.0317 -0.0276,0 -0.0557,-0.0144 -0.0624,-0.0321 -0.01,-0.0261 0.01,-0.0321 0.10541,-0.0321 0.10904,0 0.11612,0.003 0.096,0.0406 -0.0167,0.0311 -0.0139,0.0437 0.0117,0.0535 0.061,0.0234 0.0941,0.0133 0.0941,-0.0287 0,-0.0515 0.0388,-0.078 0.0694,-0.0474 0.0151,0.0151 0.0163,0.0457 0.003,0.0899 -0.0107,0.0368 -0.0263,0.06 -0.0348,0.0515 z m -0.59426,-0.11665 c 0,-0.0118 0.009,-0.0214 0.0201,-0.0214 0.0111,0 0.0261,0.01 0.0334,0.0214 0.007,0.0118 -0.002,0.0214 -0.0201,0.0214 -0.0183,0 -0.0333,-0.01 -0.0333,-0.0214 z m -0.16043,-0.0214 -0.0856,-0.0153 0.0909,-0.003 c 0.05,-0.002 0.0909,0.007 0.0909,0.0183 0,0.0118 -0.002,0.02 -0.005,0.0184 -0.003,-0.002 -0.0438,-0.01 -0.0909,-0.0184 z m -0.49354,-0.11719 c -0.0362,-0.0274 -0.0368,-0.0313 -0.005,-0.0319 0.0199,-3.8e-4 0.0425,0.01 0.0503,0.0221 0.0233,0.0377 -0.001,0.043 -0.0452,0.01 z m 0.10698,-0.0358 c 0,-0.0302 0.0162,-0.0395 0.069,-0.0395 0.11787,0 0.11398,0.0732 -0.004,0.0769 -0.0496,0.002 -0.0649,-0.007 -0.0649,-0.0374 z m -0.56531,-0.0181 c -0.0477,-0.0153 -0.0448,-0.0174 0.0267,-0.0193 0.0441,-0.001 0.0802,0.007 0.0802,0.0193 0,0.0245 -0.0305,0.0245 -0.10695,0 z m -0.11765,-0.0154 c -0.0235,-0.006 -0.0572,-0.0227 -0.0749,-0.0377 -0.0192,-0.0164 -0.0492,-0.021 -0.0749,-0.0114 -0.0487,0.0181 -0.0881,0.007 -0.14344,-0.0404 -0.0415,-0.0356 -0.0516,-0.0875 -0.017,-0.0875 0.0118,0 0.0214,0.0147 0.0214,0.0328 0,0.0508 0.0663,0.0653 0.0983,0.0215 0.0188,-0.0257 0.0459,-0.0348 0.0825,-0.0278 0.03,0.006 0.0545,0.001 0.0545,-0.009 0,-0.0109 0.0265,-0.0168 0.0588,-0.0131 0.0462,0.005 0.0603,0.0194 0.0656,0.0656 0.004,0.0324 -0.003,0.0588 -0.0154,0.0588 -0.0122,0 -0.0166,0.0144 -0.01,0.0321 0.007,0.0177 0.009,0.031 0.005,0.0296 -0.004,-0.001 -0.0269,-0.007 -0.0504,-0.0129 z m 21.64973,-0.0704 c -0.0397,-0.0401 -0.0352,-0.1067 0.007,-0.1067 0.0121,0 0.0221,0.002 0.0221,0.005 0,0.003 0.009,0.0367 0.0199,0.0749 0.0224,0.0783 0.009,0.0854 -0.0493,0.0263 z m -22.33422,-0.0551 c -0.14905,-0.0277 -0.11898,-0.0577 0.0476,-0.0474 0.0852,0.005 0.10405,0.0131 0.0937,0.0389 -0.0111,0.0276 -0.0316,0.0289 -0.1413,0.008 z m 22.56684,-0.0302 c 0.007,-0.0118 0.0175,-0.0214 0.0227,-0.0214 0.005,0 0.009,0.01 0.009,0.0214 0,0.0118 -0.0102,0.0214 -0.0226,0.0214 -0.0125,0 -0.0167,-0.01 -0.009,-0.0214 z m -22.77406,-0.0146 c 0.0154,-0.006 0.0339,-0.005 0.041,0.002 0.007,0.007 -0.006,0.0122 -0.0281,0.0112 -0.0249,-0.001 -0.03,-0.006 -0.0129,-0.0129 z m 0.46925,4.5e-4 c 0.0147,-0.006 0.0388,-0.006 0.0535,0 0.0147,0.006 0.003,0.0108 -0.0267,0.0108 -0.0294,0 -0.0414,-0.005 -0.0267,-0.0108 z m -0.62389,-0.0471 c -0.009,-0.0149 -0.011,-0.0329 -0.004,-0.0399 0.0191,-0.0191 0.04,0.009 0.0297,0.04 -0.007,0.0217 -0.0123,0.0217 -0.0258,-9e-5 z m -0.20499,-0.023 c 0,-0.0111 0.01,-0.026 0.0212,-0.0332 0.0121,-0.007 0.0157,10e-4 0.008,0.0201 -0.0142,0.037 -0.0296,0.0438 -0.0296,0.0131 z m 23.41553,-0.0526 c -0.0134,-0.035 0.002,-0.0556 0.0426,-0.0556 0.0157,0 0.0285,0.0192 0.0285,0.0428 0,0.0486 -0.0536,0.0583 -0.0711,0.0128 z m -23.55557,-0.0112 c 0.007,-0.0109 -0.005,-0.0242 -0.0255,-0.0296 -0.0287,-0.007 -0.0262,-0.0104 0.0104,-0.0123 0.0296,-0.002 0.0481,0.01 0.0481,0.0296 0,0.0176 -0.0102,0.0321 -0.0226,0.0321 -0.0125,0 -0.0172,-0.009 -0.0104,-0.0198 z m -0.76813,-0.12848 c -0.007,-0.011 -0.004,-0.025 0.006,-0.0311 0.01,-0.006 0.0182,0.003 0.0182,0.0199 0,0.0361 -0.007,0.0392 -0.024,0.0112 z m -0.23171,-0.0443 c -0.007,-0.0267 -6.6e-4,-0.0428 0.0169,-0.0428 0.0175,0 0.0239,0.016 0.0169,0.0428 -0.006,0.0235 -0.0137,0.0428 -0.0169,0.0428 -0.003,0 -0.0107,-0.0192 -0.0169,-0.0428 z m 0.0704,0.0344 c 0,-0.005 0.0144,-0.0139 0.0321,-0.0207 0.0177,-0.007 0.0321,-0.003 0.0321,0.008 0,0.0114 -0.0144,0.0207 -0.0321,0.0207 -0.0177,0 -0.0321,-0.004 -0.0321,-0.008 z m -0.68023,-0.0955 c -0.0222,-0.0141 -0.0226,-0.0291 -0.002,-0.0745 0.0377,-0.0828 0.081,-0.0727 0.0764,0.0179 -0.004,0.0751 -0.0227,0.0894 -0.0744,0.0566 z m -0.26169,-0.0788 c -0.0355,-0.0427 0.003,-0.0858 0.0581,-0.0646 0.0367,0.0142 0.0368,0.0166 0.002,0.0424 -0.0204,0.015 -0.0308,0.0336 -0.0232,0.0412 0.008,0.008 0.009,0.0139 0.002,0.0139 -0.006,0 -0.024,-0.0148 -0.039,-0.033 z m 25.6692,-0.0312 c 0,-0.0322 0.0112,-0.0438 0.0374,-0.0387 0.0206,0.004 0.0374,0.0214 0.0374,0.0387 0,0.0173 -0.0168,0.0347 -0.0374,0.0387 -0.0263,0.005 -0.0374,-0.006 -0.0374,-0.0387 z m -25.94653,-0.0133 c 0,-0.0284 0.006,-0.0299 0.0321,-0.008 0.0177,0.0146 0.0321,0.0303 0.0321,0.0347 0,0.004 -0.0144,0.008 -0.0321,0.008 -0.0177,0 -0.0321,-0.0156 -0.0321,-0.0347 z m -0.47195,-0.0562 c -7.5e-4,-0.003 -0.004,-0.0366 -0.008,-0.0749 -0.006,-0.0574 5.6e-4,-0.0695 0.0357,-0.0695 0.0286,0 0.0386,0.0103 0.0305,0.0314 -0.007,0.0173 -0.003,0.0371 0.008,0.044 0.0369,0.0228 0.0214,0.0743 -0.0223,0.0743 -0.0235,0 -0.0434,-0.002 -0.0442,-0.005 z m -0.24691,-0.0713 c 0.007,-0.0186 0.013,-0.0427 0.013,-0.0535 0,-0.0108 0.0265,-0.0193 0.0588,-0.019 0.0503,5.6e-4 0.0534,0.004 0.0214,0.0225 -0.0206,0.012 -0.0374,0.0358 -0.0374,0.0528 0,0.0171 -0.0155,0.031 -0.0344,0.031 -0.0226,0 -0.0299,-0.0116 -0.0214,-0.0338 z m -0.098,-0.002 c 0.0154,-0.006 0.0339,-0.005 0.041,0.002 0.007,0.007 -0.006,0.0122 -0.0281,0.0112 -0.0249,-0.001 -0.03,-0.006 -0.0129,-0.0129 z m -0.29546,-0.0496 c 0,-0.0118 0.0144,-0.0214 0.0321,-0.0214 0.0177,0 0.0321,0.01 0.0321,0.0214 0,0.0118 -0.0144,0.0214 -0.0321,0.0214 -0.0177,0 -0.0321,-0.01 -0.0321,-0.0214 z m -0.59893,-0.14973 c 0,-0.0347 0.0143,-0.0428 0.0752,-0.0428 0.0413,0 0.0946,0.012 0.1183,0.0267 0.035,0.0217 0.0466,0.0213 0.0612,-0.002 0.0215,-0.0346 0.10897,-0.0135 0.10897,0.0263 0,0.0343 -0.19779,0.0297 -0.2093,-0.005 -0.004,-0.0135 -0.0311,-0.0245 -0.0592,-0.0245 -0.0366,0 -0.0475,0.009 -0.0387,0.0321 0.008,0.0203 -3e-4,0.0321 -0.0221,0.0321 -0.0201,0 -0.0344,-0.0178 -0.0344,-0.0428 z m -0.59893,-0.0856 c 0,-0.0118 0.01,-0.0214 0.0214,-0.0214 0.0118,0 0.0214,0.01 0.0214,0.0214 0,0.0118 -0.01,0.0214 -0.0214,0.0214 -0.0118,0 -0.0214,-0.01 -0.0214,-0.0214 z m -0.24369,-0.0177 c -0.0213,-0.0345 0.0139,-0.11066 0.0513,-0.11066 0.0257,0 0.0409,0.0206 0.0473,0.0642 0.008,0.0552 0.003,0.0642 -0.0391,0.0642 -0.0267,0 -0.0534,-0.008 -0.0594,-0.0177 z m 28.84783,-0.10257 c 10e-4,-0.0692 0.006,-0.10408 0.0107,-0.0776 0.005,0.0265 0.0176,0.0481 0.0288,0.0481 0.0113,0 0.0141,0.0262 0.006,0.0588 -0.0261,0.11058 -0.0481,0.0965 -0.0459,-0.0293 z m -29.17098,0.0347 c -0.007,-0.0118 0.002,-0.0214 0.0214,-0.0214 0.019,0 0.0287,0.01 0.0214,0.0214 -0.007,0.0118 -0.0169,0.0214 -0.0214,0.0214 -0.004,0 -0.0141,-0.01 -0.0214,-0.0214 z m 0.1223,-0.003 c 0.005,-0.0158 0.0267,-0.0321 0.0477,-0.0362 0.0244,-0.005 0.0347,0.003 0.0285,0.0214 -0.005,0.0158 -0.0267,0.0321 -0.0477,0.0362 -0.0244,0.005 -0.0347,-0.003 -0.0285,-0.0214 z m 0.35898,0.003 c 0,-0.0118 0.015,-0.0214 0.0334,-0.0214 0.0183,0 0.0274,0.01 0.0201,0.0214 -0.007,0.0118 -0.0223,0.0214 -0.0333,0.0214 -0.0111,0 -0.0201,-0.01 -0.0201,-0.0214 z m -0.64171,-0.0214 c -0.0511,-0.0164 -0.0504,-0.0172 0.0148,-0.0193 0.0375,-0.001 0.0742,0.007 0.0815,0.0193 0.0152,0.0246 -0.0195,0.0246 -0.0963,0 z m -0.32513,-0.0684 c 0.02,-0.02 0.0314,-0.02 0.0513,0 0.02,0.02 0.0143,0.0257 -0.0257,0.0257 -0.0399,0 -0.0456,-0.006 -0.0257,-0.0257 z m -0.36337,-0.0531 c 0.0154,-0.006 0.0339,-0.005 0.041,0.002 0.007,0.007 -0.006,0.0122 -0.0281,0.0112 -0.0249,-0.001 -0.03,-0.006 -0.0129,-0.0129 z m 0.45489,-0.0192 c 0.001,-0.0249 0.006,-0.03 0.0129,-0.0129 0.006,0.0154 0.005,0.0339 -0.002,0.041 -0.007,0.007 -0.0122,-0.006 -0.0112,-0.0281 z m -0.72896,-0.0303 c -0.0193,-0.0125 -0.0219,-0.0209 -0.007,-0.0211 0.014,-1.8e-4 0.0314,0.009 0.0387,0.0211 0.0164,0.0266 0.009,0.0266 -0.0321,0 z m 0.13904,0 c -0.007,-0.0118 0.002,-0.0214 0.0201,-0.0214 0.0183,0 0.0334,0.01 0.0334,0.0214 0,0.0118 -0.009,0.0214 -0.0201,0.0214 -0.0111,0 -0.0261,-0.01 -0.0334,-0.0214 z m -0.35905,-0.0581 c -0.0229,-0.0229 -0.0367,-0.0269 -0.0367,-0.0107 0,0.031 -0.063,0.0354 -0.0669,0.005 -0.001,-0.0118 -0.004,-0.0334 -0.007,-0.0481 -0.007,-0.0485 0.0349,-0.0802 0.10668,-0.0802 0.0836,0 0.13795,0.047 0.13795,0.11918 0,0.0399 -0.0114,0.0519 -0.0489,0.0519 -0.0269,0 -0.0654,-0.0165 -0.0856,-0.0367 z m 0.0767,-0.063 c -0.0129,-0.0336 -0.0623,-0.038 -0.0813,-0.007 -0.007,0.0118 0.002,0.0214 0.0201,0.0214 0.0183,0 0.0335,0.0169 0.0337,0.0374 2.6e-4,0.0302 0.004,0.0316 0.0194,0.007 0.0105,-0.0166 0.0141,-0.043 0.008,-0.0588 z m -0.56352,-0.026 c -0.0307,-0.034 -0.0251,-0.0369 0.0802,-0.0413 0.114,-0.005 0.13485,0.009 0.0876,0.0558 -0.0366,0.0365 -0.12893,0.0286 -0.16779,-0.0145 z m -0.24505,-0.024 c -0.008,-0.0123 0.0122,-0.0212 0.0469,-0.0211 0.0466,2.5e-4 0.0529,0.005 0.028,0.0211 -0.0411,0.0266 -0.0584,0.0266 -0.0749,0 z m -0.38738,-0.11776 -0.0665,-0.0748 0.0879,0.002 c 0.0635,0.001 0.0763,0.006 0.0463,0.0178 -0.0387,0.0151 -0.0379,0.0172 0.0101,0.0298 0.0284,0.007 0.0736,0.008 0.10046,0.001 0.0385,-0.01 0.0488,-0.003 0.0488,0.0304 0,0.0407 -0.0513,0.0682 -0.12834,0.0686 -0.0176,1e-4 -0.062,-0.0335 -0.0986,-0.0746 z m -0.0939,0.0108 c 0,-0.0118 0.009,-0.0214 0.0201,-0.0214 0.0111,0 0.0261,0.01 0.0333,0.0214 0.007,0.0118 -0.002,0.0214 -0.0201,0.0214 -0.0183,0 -0.0334,-0.01 -0.0334,-0.0214 z m -0.28667,-0.0326 c -0.0341,-0.0178 -0.0775,-0.0275 -0.0964,-0.0215 -0.0189,0.006 -0.0776,0.002 -0.13045,-0.008 -0.0899,-0.0176 -0.085,-0.019 0.0752,-0.0212 0.14961,-0.002 0.17471,0.003 0.19804,0.0404 0.0319,0.0511 0.0321,0.0511 -0.0464,0.0101 z m 0.0941,-0.009 c 0,-0.0111 0.01,-0.026 0.0212,-0.0332 0.0121,-0.007 0.0157,0.001 0.008,0.0201 -0.0142,0.0371 -0.0296,0.0438 -0.0296,0.0131 z m -0.72727,-0.14973 c 0,-0.0516 0.0119,-0.0569 0.0289,-0.0126 0.007,0.0173 0.003,0.0371 -0.008,0.044 -0.0112,0.007 -0.0205,-0.007 -0.0205,-0.0314 z m -0.28462,0.006 c -0.008,-0.008 -0.009,-0.022 -0.002,-0.0321 0.0182,-0.0295 0.0674,-0.0212 0.0807,0.0137 0.0124,0.0324 -0.0498,0.047 -0.0785,0.0184 z m -0.26127,-0.11269 c 0.0125,-0.057 0.009,-0.0661 -0.0289,-0.0661 -0.0239,0 -0.0523,0.0159 -0.0632,0.0354 -0.0128,0.0229 -0.0332,0.0302 -0.0577,0.0208 -0.0349,-0.0134 -0.0339,-0.0188 0.0118,-0.0675 0.0363,-0.0387 0.0721,-0.0529 0.13278,-0.0529 h 0.0831 l -0.007,0.0907 c -0.005,0.0682 -0.0164,0.0926 -0.0462,0.0982 -0.0339,0.006 -0.0375,-0.002 -0.025,-0.0586 z m 0.43493,0.0476 c 0.0154,-0.006 0.0339,-0.005 0.041,0.002 0.007,0.007 -0.006,0.0122 -0.0281,0.0112 -0.0249,-0.001 -0.03,-0.006 -0.0129,-0.0129 z m -0.82302,-0.17339 c -0.0216,-0.0222 -0.0574,-0.047 -0.0796,-0.055 -0.0387,-0.014 -0.0388,-0.0163 -0.002,-0.0564 0.0208,-0.023 0.0462,-0.0367 0.0564,-0.0304 0.0102,0.006 0.0185,6.2e-4 0.0185,-0.0126 0,-0.0136 0.0255,-0.0211 0.0588,-0.0173 0.0462,0.005 0.0603,0.0194 0.0656,0.0656 0.004,0.0333 -0.004,0.0588 -0.0173,0.0588 -0.0132,0 -0.0188,0.009 -0.0124,0.019 0.006,0.0104 -0.002,0.0302 -0.0183,0.0439 -0.0234,0.0194 -0.0386,0.016 -0.0693,-0.0156 z m -0.34409,-0.26041 c -0.053,-0.0672 -0.0589,-0.0863 -0.0267,-0.0863 0.0118,0 0.0214,0.0136 0.0214,0.0303 0,0.0167 0.0265,0.05 0.0588,0.0742 0.0358,0.0267 0.0462,0.0437 0.0267,0.0434 -0.0177,-2.8e-4 -0.0537,-0.028 -0.0802,-0.0615 z m -0.1123,-0.23608 c 0,-0.0118 0.0102,-0.0214 0.0226,-0.0214 0.0125,0 0.0167,0.01 0.009,0.0214 -0.007,0.0118 -0.0175,0.0214 -0.0226,0.0214 -0.005,0 -0.009,-0.01 -0.009,-0.0214 z m -0.16958,-0.10406 c -0.0212,-0.0397 -0.0187,-0.0457 0.0191,-0.0457 0.0472,0 0.0533,0.0156 0.0241,0.0617 -0.015,0.0237 -0.0237,0.0205 -0.0432,-0.016 z m 31.35674,-0.0217 c 0,-0.0103 0.0143,-0.0307 0.0318,-0.0452 0.0257,-0.0213 0.0343,-0.02 0.0445,0.007 0.007,0.0182 0.0264,0.0279 0.043,0.0215 0.0167,-0.006 0.0303,-9.8e-4 0.0303,0.012 0,0.013 -0.0337,0.0237 -0.0749,0.0237 -0.0412,0 -0.0749,-0.008 -0.0749,-0.0188 z m -31.37433,-0.0685 c 0.0457,-0.0266 0.05,-0.0659 0.005,-0.0488 -0.0197,0.008 -0.0321,-4e-5 -0.0321,-0.0198 0,-0.0208 0.0188,-0.031 0.0535,-0.029 0.0294,0.002 0.0535,0.008 0.0535,0.0144 4e-5,0.0272 -0.0689,0.1063 -0.0921,0.10571 -0.014,-3.6e-4 -0.009,-0.0105 0.0119,-0.0224 z m 31.37433,-0.0197 c 0,-0.0118 0.0102,-0.0214 0.0227,-0.0214 0.0125,0 0.0167,0.01 0.009,0.0214 -0.007,0.0118 -0.0175,0.0214 -0.0226,0.0214 -0.005,0 -0.009,-0.01 -0.009,-0.0214 z m -31.38369,-0.14296 c 0.0154,-0.006 0.0339,-0.005 0.041,0.002 0.007,0.007 -0.006,0.0122 -0.0281,0.0112 -0.0249,-0.001 -0.03,-0.006 -0.0129,-0.0129 z m -0.17493,-0.23741 c -0.009,-0.0139 -0.009,-0.0583 -0.002,-0.0985 0.0135,-0.072 0.0144,-0.0726 0.0545,-0.0325 0.0479,0.0479 0.0536,0.10495 0.0105,0.10495 -0.0167,0 -0.0342,0.0116 -0.0389,0.0257 -0.007,0.0197 -0.0122,0.0198 -0.0242,3.6e-4 z m 18.05729,-18.1797 c 0.0154,-0.006 0.0339,-0.005 0.041,0.002 0.007,0.007 -0.006,0.0122 -0.0281,0.0112 -0.0249,-0.001 -0.03,-0.006 -0.0129,-0.0129 z m 0.16836,-0.015 c -0.009,-0.0234 0.006,-0.044 0.0467,-0.0652 0.052,-0.0269 0.0599,-0.0269 0.0599,-1.7e-4 0,0.0169 -0.0123,0.0308 -0.0275,0.0308 -0.0151,0 -0.0361,0.0155 -0.0467,0.0344 -0.0176,0.0315 -0.0204,0.0315 -0.0324,1.7e-4 z m -0.99858,-0.11949 c 0,-0.0114 0.0144,-0.0152 0.0321,-0.008 0.0176,0.007 0.0321,0.0161 0.0321,0.0207 0,0.005 -0.0144,0.008 -0.0321,0.008 -0.0176,0 -0.0321,-0.009 -0.0321,-0.0207 z m 1.35106,-0.0765 c -0.0215,-0.0472 -0.0199,-0.0536 0.0119,-0.0481 0.0251,0.004 0.0403,-0.0119 0.0481,-0.0509 0.0113,-0.0565 0.012,-0.0567 0.0595,-0.018 0.0311,0.0253 0.0481,0.0627 0.0481,0.10534 0,0.0607 -0.006,0.0661 -0.0714,0.0661 -0.0558,0 -0.0769,-0.0119 -0.0962,-0.0544 z m -1.67191,-0.13811 c 0,-0.0118 0.01,-0.0214 0.0214,-0.0214 0.0118,0 0.0214,0.01 0.0214,0.0214 0,0.0118 -0.01,0.0214 -0.0214,0.0214 -0.0118,0 -0.0214,-0.01 -0.0214,-0.0214 z m -0.0806,-0.12834 c -0.0385,-0.0778 -0.0391,-0.0856 -0.006,-0.0856 0.0325,0 0.0917,0.0635 0.13953,0.14974 0.0145,0.0261 0.0124,0.0271 -0.011,0.005 -0.0342,-0.0318 -0.0927,-0.036 -0.0737,-0.005 0.007,0.0118 0.009,0.0214 0.004,0.0214 -0.005,0 -0.0288,-0.0385 -0.0521,-0.0856 z m 2.08184,-0.21198 c -0.0171,-0.0276 0.0101,-0.0896 0.0331,-0.0754 0.0255,0.0157 0.0247,0.0949 -9.8e-4,0.0949 -0.0111,0 -0.0255,-0.009 -0.0322,-0.0195 z m -2.22579,-0.0233 c 0.007,-0.0118 0.0175,-0.0214 0.0226,-0.0214 0.005,0 0.009,0.01 0.009,0.0214 0,0.0118 -0.0102,0.0214 -0.0226,0.0214 -0.0125,0 -0.0167,-0.01 -0.009,-0.0214 z m 2.30928,-0.0442 c -0.0228,-0.0369 -0.003,-0.0399 0.0544,-0.008 0.0515,0.0285 0.0518,0.0296 0.007,0.0303 -0.0258,4.2e-4 -0.0532,-0.01 -0.061,-0.0221 z m 0.0715,-0.26663 c -0.006,-0.006 0.004,-0.0545 0.0231,-0.10722 0.0226,-0.0629 0.0443,-0.0921 0.063,-0.0849 0.0157,0.006 0.047,0.011 0.0696,0.011 0.0587,0 0.0525,0.076 -0.0115,0.14001 -0.0486,0.0486 -0.11723,0.0682 -0.14424,0.0411 z m 0.0898,-0.11698 c 0,-0.0118 -0.004,-0.0214 -0.009,-0.0214 -0.005,0 -0.0154,0.01 -0.0226,0.0214 -0.007,0.0118 -0.003,0.0214 0.009,0.0214 0.0125,0 0.0227,-0.01 0.0227,-0.0214 z m -2.65776,0.0135 c -0.0743,-0.0275 -0.0795,-0.0937 -0.007,-0.0937 0.0386,0 0.0542,0.0141 0.0623,0.0562 0.006,0.0309 0.009,0.0569 0.007,0.0578 -0.002,8.9e-4 -0.0299,-0.008 -0.0623,-0.0202 z m 2.73382,-0.24689 c -0.007,-0.0107 -0.006,-0.0349 0.001,-0.0538 0.007,-0.0189 0.002,-0.0475 -0.0112,-0.0636 -0.0186,-0.0225 -0.0167,-0.0322 0.008,-0.0418 0.0262,-0.0101 0.0326,0.006 0.0326,0.0831 0,0.0947 -0.008,0.11367 -0.0309,0.0761 z m -2.79264,-0.034 c 0,-0.0176 0.009,-0.0321 0.0207,-0.0321 0.0114,0 0.0152,0.0144 0.008,0.0321 -0.007,0.0177 -0.0161,0.0321 -0.0207,0.0321 -0.005,0 -0.008,-0.0144 -0.008,-0.0321 z m -0.17112,-0.16042 c 0,-0.0238 0.0143,-0.0428 0.0321,-0.0428 0.0178,0 0.0321,0.019 0.0321,0.0428 0,0.0238 -0.0143,0.0428 -0.0321,0.0428 -0.0178,0 -0.0321,-0.019 -0.0321,-0.0428 z m 0.11649,-0.066 c -0.008,-0.0128 -0.004,-0.034 0.009,-0.0471 0.0175,-0.0175 0.0238,-0.0113 0.0238,0.0233 0,0.0516 -0.0111,0.0596 -0.0332,0.0238 z m 2.87816,-0.13952 c 0,-0.0626 0.0109,-0.0784 0.0746,-0.10878 0.041,-0.0196 0.08,-0.0302 0.0866,-0.0236 0.022,0.022 -0.0157,0.124 -0.0459,0.124 -0.0164,0 -0.0298,0.0133 -0.0298,0.0296 0,0.0163 -0.0192,0.0346 -0.0428,0.0408 -0.0366,0.01 -0.0428,6.6e-4 -0.0428,-0.062 z m -2.99185,0.013 c -0.002,-0.0608 0.0302,-0.12386 0.0526,-0.1015 0.008,0.008 0.005,0.0272 -0.007,0.0422 -0.0122,0.015 -0.0269,0.0465 -0.0327,0.07 -0.009,0.0353 -0.0109,0.0334 -0.0127,-0.0107 z m -0.003,-0.19318 c 0,-0.0114 0.0144,-0.0207 0.0321,-0.0207 0.0177,0 0.0321,0.004 0.0321,0.008 0,0.005 -0.0144,0.0139 -0.0321,0.0207 -0.0176,0.007 -0.0321,0.003 -0.0321,-0.008 z m 3.1379,-0.3072 c -0.009,-0.0223 -0.0109,-0.0455 -0.005,-0.0517 0.0195,-0.0195 0.0367,0.0125 0.0285,0.0531 -0.007,0.0372 -0.009,0.0372 -0.0238,-0.001 z m -0.0791,-0.10924 c 0,-0.0177 0.01,-0.0321 0.0214,-0.0321 0.0118,0 0.0214,0.0144 0.0214,0.0321 0,0.0176 -0.01,0.0321 -0.0214,0.0321 -0.0118,0 -0.0214,-0.0144 -0.0214,-0.0321 z m 0.0688,-0.23367 c -0.0186,-0.0408 -0.017,-0.0573 0.007,-0.0775 0.026,-0.0215 0.0309,-0.0133 0.0309,0.0519 0,0.0912 -0.006,0.0955 -0.0382,0.0256 z m -3.09554,-0.24762 c 0.007,-0.0118 0.0175,-0.0214 0.0226,-0.0214 0.005,0 0.009,0.01 0.009,0.0214 0,0.0118 -0.0102,0.0214 -0.0227,0.0214 -0.0125,0 -0.0167,-0.01 -0.009,-0.0214 z m 3.00535,-0.0547 c 0,-0.0183 0.01,-0.0273 0.0217,-0.0199 0.0119,0.007 0.0162,0.0224 0.009,0.0334 -0.0183,0.0297 -0.0312,0.0241 -0.0312,-0.0134 z m 0.10442,0.007 c -0.001,-0.0147 -9.2e-4,-0.0354 0.001,-0.046 0.002,-0.0106 -0.002,-0.0327 -0.008,-0.0491 -0.009,-0.0237 -0.0209,-0.0247 -0.0577,-0.005 -0.0445,0.0238 -0.0458,0.0216 -0.0331,-0.0565 0.008,-0.0479 0.003,-0.0931 -0.0105,-0.10994 -0.0354,-0.0426 -0.0115,-0.0521 0.0644,-0.0256 0.0671,0.0234 0.0676,0.0247 0.0676,0.17122 0,0.0812 -0.005,0.14764 -0.0107,0.14764 -0.006,0 -0.0118,-0.012 -0.0132,-0.0267 z m -3.14017,-0.26382 c 0.001,-0.0249 0.006,-0.03 0.0129,-0.0129 0.006,0.0154 0.005,0.0339 -0.002,0.041 -0.007,0.007 -0.0122,-0.006 -0.0112,-0.0281 z m 0.11628,-0.27094 c -0.009,-0.0209 -0.0382,-0.0374 -0.0668,-0.0374 -0.0689,0 -0.0682,-0.0705 0.001,-0.14001 0.0488,-0.0488 0.14117,-0.073 0.1391,-0.0365 -5e-4,0.009 -0.0138,0.069 -0.0295,0.13369 -0.0206,0.085 -0.0329,0.10726 -0.0442,0.0802 z m 0.0211,-0.10161 c 0.007,-0.0118 0.003,-0.0214 -0.009,-0.0214 -0.0125,0 -0.0226,0.01 -0.0226,0.0214 0,0.0118 0.004,0.0214 0.009,0.0214 0.005,0 0.0154,-0.01 0.0226,-0.0214 z m 2.81284,-0.2139 c 0,-0.0118 -0.0206,-0.042 -0.0459,-0.0673 l -0.0459,-0.0459 0.0551,0.0138 c 0.0456,0.0114 0.0567,0.006 0.0644,-0.0343 0.008,-0.0413 0.01,-0.0398 0.0122,0.0107 0.002,0.0324 -0.006,0.0588 -0.0165,0.0588 -0.0107,0 -0.0144,0.0192 -0.008,0.0428 0.006,0.0235 0.005,0.0428 -0.002,0.0428 -0.007,0 -0.0132,-0.01 -0.0132,-0.0214 z m -2.75936,-0.0868 c 0,-0.0125 0.01,-0.0167 0.0214,-0.009 0.0118,0.007 0.0214,0.0175 0.0214,0.0226 0,0.005 -0.01,0.009 -0.0214,0.009 -0.0118,0 -0.0214,-0.0102 -0.0214,-0.0227 z m -0.0182,-0.0736 c -0.003,-0.0573 0.0292,-0.10888 0.0488,-0.0772 0.008,0.013 0.005,0.0237 -0.007,0.0237 -0.0116,0 -0.0253,0.0216 -0.0304,0.0481 -0.008,0.0415 -0.01,0.0422 -0.0119,0.005 z m 2.69195,-0.0535 c 0,-0.0235 0.009,-0.0428 0.0206,-0.0428 0.0114,0 0.0309,0.0193 0.0435,0.0428 0.0194,0.0363 0.0163,0.0428 -0.0206,0.0428 -0.0293,0 -0.0435,-0.014 -0.0435,-0.0428 z m -2.64706,-0.12112 c -0.0303,-0.0122 -0.0368,-0.0714 -0.008,-0.0714 0.0104,0 0.0239,0.0192 0.0301,0.0428 0.006,0.0235 0.01,0.042 0.008,0.0411 -0.002,-9.2e-4 -0.0154,-0.007 -0.0301,-0.0125 z m 0.12299,-0.12487 c 0,-0.0177 0.01,-0.0321 0.0214,-0.0321 0.0118,0 0.0214,0.0144 0.0214,0.0321 0,0.0176 -0.01,0.0321 -0.0214,0.0321 -0.0118,0 -0.0214,-0.0144 -0.0214,-0.0321 z m 0.0522,-0.21323 c -0.0228,-0.0173 -0.0303,-0.0317 -0.0165,-0.0321 0.0406,-0.001 0.0927,0.0238 0.0927,0.0444 0,0.028 -0.029,0.0233 -0.0761,-0.0123 z m 2.10108,-0.17537 c -0.008,-0.008 -0.0143,-0.0242 -0.0143,-0.0364 0,-0.0134 0.01,-0.0121 0.0253,0.003 0.0139,0.0139 0.0203,0.0303 0.0143,0.0364 -0.006,0.006 -0.0175,0.005 -0.0253,-0.003 z m -1.81105,-0.22103 c 0,-0.0348 0.0143,-0.0428 0.0761,-0.0428 0.0453,0 0.0708,0.009 0.0629,0.0214 -0.007,0.0118 -0.0319,0.0214 -0.0547,0.0214 -0.0228,0 -0.0415,0.01 -0.0415,0.0214 0,0.0118 -0.01,0.0214 -0.0214,0.0214 -0.0118,0 -0.0214,-0.0192 -0.0214,-0.0428 z m 0.17112,-0.0856 c 0,-0.0118 0.0102,-0.0214 0.0226,-0.0214 0.0125,0 0.0167,0.01 0.009,0.0214 -0.007,0.0118 -0.0175,0.0214 -0.0227,0.0214 -0.005,0 -0.009,-0.01 -0.009,-0.0214 z m 1.18655,-0.12416 c -0.0258,-0.0185 -0.0354,-0.13253 -0.0112,-0.13253 0.01,0 0.0224,0.0313 0.0282,0.0695 0.0121,0.0797 0.0112,0.0832 -0.017,0.063 z m -0.90689,-0.0771 c -0.0179,-0.0216 -0.0184,-0.0343 -0.002,-0.0446 0.0284,-0.0175 0.0899,0.0292 0.0735,0.0558 -0.0169,0.0274 -0.0431,0.0233 -0.0718,-0.0112 z m 0.74708,-0.0208 c 0,-0.005 0.0192,-0.0132 0.0428,-0.0194 0.0235,-0.006 0.0428,-0.002 0.0428,0.008 0,0.0107 -0.0192,0.0194 -0.0428,0.0194 -0.0235,0 -0.0428,-0.004 -0.0428,-0.008 z m -0.29517,-0.048 c 0.0236,-0.0236 0.0528,-0.0304 0.0901,-0.021 0.0863,0.0217 0.065,0.0558 -0.0349,0.0558 -0.0833,0 -0.0875,-0.003 -0.0553,-0.0349 z m 0.22565,-0.0221 c 0.0147,-0.006 0.0388,-0.006 0.0535,0 0.0147,0.006 0.003,0.0108 -0.0267,0.0108 -0.0294,0 -0.0414,-0.005 -0.0267,-0.0108 z m 13.60333,-18.4461 c -0.009,-0.0338 -0.003,-0.0432 0.024,-0.038 0.0402,0.008 0.0488,0.0626 0.0118,0.0749 -0.0132,0.004 -0.0293,-0.0122 -0.0358,-0.0369 z m -31.66273,-1.02457 c 0.0166,-0.0524 -0.0235,-0.0779 -0.0665,-0.0422 -0.0294,0.0244 -0.0314,0.0157 -0.0178,-0.0784 0.008,-0.0582 0.0244,-0.12027 0.0355,-0.13792 0.014,-0.0223 0.0166,-0.0106 0.008,0.0381 -0.01,0.0597 -0.004,0.0738 0.0413,0.0944 0.0411,0.0187 0.0531,0.0403 0.0531,0.0956 0,0.0506 -0.01,0.0714 -0.0335,0.0714 -0.0233,0 -0.0296,-0.0125 -0.0205,-0.041 z m -0.0101,-0.451 c 0,-0.0118 0.0102,-0.0214 0.0226,-0.0214 0.0125,0 0.0167,0.01 0.009,0.0214 -0.007,0.0118 -0.0175,0.0214 -0.0227,0.0214 -0.005,0 -0.009,-0.01 -0.009,-0.0214 z m 34.39572,-0.18181 c 0,-0.0176 0.01,-0.0321 0.0214,-0.0321 0.0118,0 0.0214,0.0144 0.0214,0.0321 0,0.0176 -0.01,0.0321 -0.0214,0.0321 -0.0118,0 -0.0214,-0.0144 -0.0214,-0.0321 z m -34.17596,-0.0926 c -0.0145,-0.009 -0.0177,-0.0272 -0.008,-0.0434 0.0134,-0.0217 0.0205,-0.0197 0.0315,0.009 0.0171,0.0445 0.01,0.0551 -0.0238,0.0344 z m 0.0161,-0.15518 c 0.0263,-0.0917 0.0807,-0.14791 0.143,-0.14791 0.0479,0 0.0509,0.007 0.0448,0.10161 l -0.007,0.1016 -0.10043,0.006 -0.10043,0.006 z m 34.01552,0.0518 c -0.0308,-0.0124 -0.0365,-0.14837 -0.007,-0.16658 0.0108,-0.007 0.0308,0.0216 0.0444,0.0629 0.0136,0.0413 0.0336,0.0751 0.0445,0.0751 0.0109,0 0.0197,0.01 0.0197,0.0214 0,0.0222 -0.0549,0.0261 -0.1016,0.007 z m -33.48129,-0.52544 c 0,-0.0162 0.012,-0.0423 0.0267,-0.0582 0.0214,-0.023 0.0214,-0.0258 0,-0.0137 -0.0599,0.0338 -0.0216,-0.0126 0.0428,-0.0518 0.0874,-0.0533 0.10161,-0.0531 0.10161,9.9e-4 0,0.0369 -0.007,0.04 -0.0428,0.0206 -0.0361,-0.0193 -0.0432,-0.0161 -0.0455,0.0206 -0.005,0.0889 -0.009,0.0966 -0.0455,0.10364 -0.021,0.004 -0.0374,-0.006 -0.0374,-0.0222 z m 0.31206,-0.16321 c -0.0231,-0.0374 0.0112,-0.0853 0.0779,-0.10852 0.10847,-0.0378 0.12689,-0.0306 0.11944,0.0466 -0.006,0.065 -0.0125,0.0699 -0.0957,0.076 -0.0489,0.004 -0.0947,-0.003 -0.10167,-0.0141 z m 32.55721,-0.0779 c 0.007,-0.0176 0.0161,-0.0321 0.0207,-0.0321 0.005,0 0.008,0.0144 0.008,0.0321 0,0.0177 -0.009,0.0321 -0.0207,0.0321 -0.0114,0 -0.0152,-0.0144 -0.008,-0.0321 z m -32.23265,-0.09 c 0.0266,-0.005 0.0651,-0.005 0.0856,4.4e-4 0.0205,0.005 -0.001,0.01 -0.0484,0.009 -0.0471,-2.4e-4 -0.0638,-0.005 -0.0372,-0.01 z m 0.19761,-0.004 c 0,-0.0104 0.0232,-0.0233 0.0515,-0.0288 0.0369,-0.007 0.0484,-0.002 0.0405,0.0189 -0.0121,0.0316 -0.092,0.0401 -0.092,0.01 z m 0.37913,0.006 c -0.0233,-0.0233 0.0537,-0.0713 0.11285,-0.0703 0.0439,6.7e-4 0.0465,0.004 0.0145,0.0162 -0.0215,0.008 -0.0359,0.0246 -0.0321,0.0359 0.008,0.0242 -0.0736,0.0398 -0.0952,0.0182 z m 0.19254,2e-5 c -0.0141,-0.0141 0.0291,-0.094 0.0508,-0.094 0.007,0 0.009,0.0241 0.003,0.0535 -0.0101,0.0525 -0.0282,0.0662 -0.0539,0.0405 z m 0.30132,-0.002 c 0.0154,-0.006 0.0339,-0.005 0.041,0.002 0.007,0.007 -0.006,0.0122 -0.0281,0.0112 -0.0249,-10e-4 -0.03,-0.006 -0.0129,-0.0129 z m 0.16444,-0.0389 c 0,-0.0557 0.022,-0.066 0.0726,-0.0339 0.0391,0.0247 0.0143,0.0874 -0.0345,0.0874 -0.0264,0 -0.0381,-0.0164 -0.0381,-0.0535 z m 0.19622,0.0393 c -0.008,-0.008 0.006,-0.0281 0.0304,-0.0453 0.0278,-0.0195 0.0405,-0.0463 0.034,-0.0714 -0.008,-0.0315 0.001,-0.0403 0.0426,-0.0403 0.0488,0 0.0519,0.006 0.0383,0.0695 -0.008,0.0382 -0.0192,0.0767 -0.0243,0.0856 -0.0117,0.0198 -0.10155,0.0212 -0.12086,0.002 z m -1.10531,-0.0287 c 0,-0.0118 0.0198,-0.0214 0.044,-0.0214 0.0242,0 0.0381,0.01 0.0308,0.0214 -0.007,0.0118 -0.0271,0.0214 -0.044,0.0214 -0.0169,0 -0.0308,-0.01 -0.0308,-0.0214 z m 31.52941,0 c 0,-0.0118 0.01,-0.0214 0.0214,-0.0214 0.0118,0 0.0214,0.01 0.0214,0.0214 0,0.0118 -0.01,0.0214 -0.0214,0.0214 -0.0118,0 -0.0214,-0.01 -0.0214,-0.0214 z m -0.1804,-0.0192 c -0.0286,-0.0112 -0.0335,-0.021 -0.0159,-0.0319 0.014,-0.009 0.0405,-6.9e-4 0.0589,0.0177 0.0359,0.0359 0.023,0.0401 -0.0431,0.0143 z m -30.62141,-0.0289 c -2.2e-4,-0.0251 0.0155,-0.0369 0.0478,-0.0357 0.0322,0.001 0.0375,0.006 0.016,0.0139 -0.0176,0.007 -0.0392,0.0228 -0.0478,0.0357 -0.01,0.0145 -0.0158,0.009 -0.016,-0.0139 z m 0.32299,0.007 c -0.0238,-0.0151 -0.0211,-0.0233 0.0138,-0.042 0.0328,-0.0175 0.0492,-0.0163 0.0669,0.005 0.0401,0.0484 -0.0195,0.0757 -0.0807,0.037 z m 0.37722,-0.1017 c 0.0147,-0.006 0.0388,-0.006 0.0535,0 0.0147,0.006 0.003,0.0108 -0.0267,0.0108 -0.0294,0 -0.0414,-0.005 -0.0267,-0.0108 z m 0.39037,-0.007 c 0,-0.0118 0.0192,-0.0214 0.0428,-0.0214 0.0235,0 0.0428,0.01 0.0428,0.0214 0,0.0118 -0.0192,0.0214 -0.0428,0.0214 -0.0235,0 -0.0428,-0.01 -0.0428,-0.0214 z m 0.19252,0.0112 c 0,-0.006 0.0265,-0.0233 0.0588,-0.0393 0.0522,-0.0259 0.063,-0.0248 0.0963,0.0102 0.0361,0.0379 0.0339,0.0393 -0.0588,0.0393 -0.0529,0 -0.0962,-0.005 -0.0962,-0.0102 z m 0.45655,-0.0432 c 0.0136,-0.0293 0.0414,-0.0534 0.0617,-0.0535 0.0317,-1.5e-4 0.0335,0.007 0.0126,0.0533 -0.0134,0.0294 -0.0412,0.0535 -0.0617,0.0535 -0.0321,0 -0.0339,-0.007 -0.0126,-0.0533 z m 0.20181,0.031 c 0.0287,-0.0115 0.0815,-0.0118 0.12835,-8e-4 0.0748,0.0177 0.0718,0.0188 -0.0488,0.0196 -0.0983,6e-4 -0.11694,-0.004 -0.0796,-0.0188 z m 0.21337,-0.0462 c -0.007,-0.0174 0.007,-0.0426 0.0309,-0.0576 0.0579,-0.0362 0.0647,-0.0226 0.019,0.038 -0.0295,0.0391 -0.0407,0.0434 -0.0499,0.0195 z m -0.5081,-0.0171 c 0,-0.0118 0.0217,-0.0212 0.0481,-0.0211 0.0389,2.6e-4 0.042,0.004 0.016,0.0211 -0.0415,0.0268 -0.0642,0.0268 -0.0642,0 z m 0.38503,0 c -0.0498,-0.0159 -0.0502,-0.0173 -0.007,-0.0193 0.0258,-0.001 0.0528,0.007 0.0601,0.0193 0.007,0.0118 0.0102,0.0204 0.007,0.0193 -0.004,-10e-4 -0.0307,-0.01 -0.0601,-0.0193 z m 0.34225,-0.0107 c -0.0218,-0.0263 -0.0204,-0.0321 0.008,-0.0321 0.0191,0 0.0347,0.0144 0.0347,0.0321 0,0.0177 -0.004,0.0321 -0.008,0.0321 -0.004,0 -0.0201,-0.0144 -0.0347,-0.0321 z m 0.27297,-0.09 c 0.0266,-0.005 0.0651,-0.005 0.0856,4.3e-4 0.0204,0.005 -10e-4,0.01 -0.0484,0.009 -0.0471,-2.3e-4 -0.0638,-0.005 -0.0372,-0.01 z m 0.35804,-0.006 c 0.007,-0.0118 0.0277,-0.0214 0.0453,-0.0214 0.0176,0 0.0261,0.01 0.0189,0.0214 -0.007,0.0118 -0.0277,0.0214 -0.0453,0.0214 -0.0177,0 -0.0261,-0.01 -0.0189,-0.0214 z m 0.45098,-0.0138 c -0.0196,-0.0512 -0.004,-0.0551 0.0259,-0.007 0.0144,0.023 0.0174,0.0418 0.007,0.0418 -0.0106,0 -0.0254,-0.0158 -0.0328,-0.0352 z m 0.15865,0.0145 c 0,-0.0353 0.0869,-0.0692 0.1419,-0.0554 0.0288,0.007 0.0471,0.0217 0.0407,0.0321 -0.006,0.0104 3.9e-4,0.0238 0.0152,0.0298 0.0148,0.006 -0.0237,0.0116 -0.0854,0.0125 -0.0618,9.3e-4 -0.1123,-0.008 -0.1123,-0.019 z m 0.22821,-0.01 c -0.0186,-0.0484 0.0388,-0.0887 0.12885,-0.0906 0.0927,-0.002 0.12437,0.026 0.0909,0.0801 -0.0231,0.0373 -0.20614,0.046 -0.21979,0.0105 z m 16.34398,-0.0705 c -0.0757,-0.0115 -0.075,-0.039 0.002,-0.0658 0.0502,-0.0175 0.0648,-0.0142 0.0856,0.019 0.0416,0.0666 0.0422,0.0664 -0.0872,0.0468 z m -15.58289,-0.085 c 0.0206,-0.005 0.0543,-0.005 0.0749,0 0.0206,0.005 0.004,0.01 -0.0374,0.01 -0.0412,0 -0.058,-0.004 -0.0374,-0.01 z m 0.63637,-0.007 c 0,-0.0118 0.0144,-0.0214 0.0321,-0.0214 0.0176,0 0.0321,-0.01 0.0321,-0.0214 0,-0.0118 0.0289,-0.0214 0.0642,-0.0214 0.0499,0 0.0642,0.01 0.0642,0.0428 0,0.0365 -0.0143,0.0428 -0.0963,0.0428 -0.0529,0 -0.0962,-0.01 -0.0962,-0.0214 z m 0.53475,-0.007 c 0,-0.0573 0.0563,-0.0958 0.15509,-0.10602 0.0559,-0.006 0.1016,-0.002 0.1016,0.008 0,0.0222 -0.0893,0.0734 -0.11492,0.066 -0.0103,-0.003 -0.013,0.009 -0.006,0.0275 0.01,0.0258 -0.004,0.033 -0.0616,0.033 -0.0469,0 -0.0742,-0.0103 -0.0742,-0.028 z m 0.45641,-0.048 c -0.0375,-0.0406 -0.0409,-0.0546 -0.0181,-0.0735 0.0354,-0.0294 0.13922,-0.005 0.13922,0.0325 0,0.0491 -0.0252,0.0958 -0.0504,0.0934 -0.0135,-0.001 -0.0453,-0.0248 -0.0707,-0.0524 z m 13.89654,-0.0202 c 0,-0.0177 0.004,-0.0321 0.009,-0.0321 0.005,0 0.0242,-0.006 0.0428,-0.013 0.0216,-0.008 0.0338,-0.001 0.0338,0.0191 0,0.0177 -0.0152,0.0379 -0.0338,0.0451 -0.0478,0.0184 -0.0517,0.0169 -0.0517,-0.0191 z m -12.91241,-0.10788 c -0.007,-0.0182 -0.008,-0.0376 -0.002,-0.0433 0.0191,-0.0191 0.0806,0.0164 0.0806,0.0465 0,0.0405 -0.0624,0.0379 -0.0782,-0.003 z m 0.22172,-0.01 c -0.0126,-0.0482 0.006,-0.0554 0.0447,-0.0171 0.0342,0.0342 0.0325,0.0599 -0.004,0.0599 -0.0163,0 -0.0346,-0.0192 -0.0408,-0.0428 z m 0.26823,0.013 c 0.0427,-0.0324 0.0523,-0.089 0.0107,-0.063 -0.04,0.025 -0.0786,0.0272 -0.0921,0.005 -0.0123,-0.02 -0.003,-0.0228 0.10813,-0.0309 0.0899,-0.007 0.10516,0.009 0.0602,0.0599 -0.032,0.0365 -0.0328,0.0421 -0.005,0.0319 0.0187,-0.007 0.0476,-0.004 0.0642,0.007 0.02,0.0126 -0.006,0.019 -0.0768,0.0187 -0.0935,-3e-4 -0.10224,-0.004 -0.0695,-0.0288 z m 0.26738,0.0156 c 0.0455,-0.0184 0.0294,-0.05 -0.0255,-0.05 -0.0687,0 -0.0882,-0.0348 -0.0353,-0.0631 0.0952,-0.0509 0.19219,-0.005 0.19384,0.0925 5.7e-4,0.0337 -0.005,0.0357 -0.0323,0.0127 -0.025,-0.0207 -0.039,-0.0214 -0.0577,-0.003 -0.0136,0.0136 -0.0349,0.024 -0.0472,0.0231 -0.0124,-9.3e-4 -0.0104,-0.007 0.004,-0.0125 z m -1.03209,-0.0286 c 0.0235,-0.0101 0.0572,-0.0184 0.0749,-0.0184 0.0202,0 0.0163,0.007 -0.0107,0.0184 -0.0235,0.0101 -0.0572,0.0184 -0.0749,0.0184 -0.0202,0 -0.0163,-0.007 0.0107,-0.0184 z m 1.81818,-0.14973 c 0.007,-0.0118 0.0367,-0.0214 0.0654,-0.0214 0.0287,0 0.0522,0.01 0.0522,0.0214 0,0.0118 -0.0294,0.0214 -0.0654,0.0214 -0.0382,0 -0.0599,-0.009 -0.0522,-0.0214 z m 0.49936,-0.0258 c 0.0778,-0.0377 0.096,-0.0402 0.11197,-0.015 0.0341,0.0538 0.0214,0.0622 -0.0926,0.0611 l -0.1123,-0.001 z m 0.27097,0.0253 c 0.008,-0.0136 0.0353,-0.0194 0.0598,-0.013 0.0245,0.006 0.0587,4e-5 0.0759,-0.0142 0.0253,-0.0209 0.0293,-0.0196 0.0209,0.006 -0.006,0.0191 -0.043,0.0348 -0.0912,0.0388 -0.0568,0.005 -0.0762,-5.4e-4 -0.0654,-0.0179 z m 10.472,-0.012 c 10e-4,-0.0249 0.006,-0.03 0.0129,-0.0129 0.006,0.0154 0.005,0.0339 -0.002,0.041 -0.007,0.007 -0.0122,-0.006 -0.0112,-0.0281 z m -10.10195,-0.0877 c 0.0154,-0.006 0.0339,-0.005 0.041,0.002 0.007,0.007 -0.006,0.0122 -0.0281,0.0112 -0.0249,-10e-4 -0.03,-0.006 -0.0129,-0.0129 z m 0.49198,-0.0642 c 0.0154,-0.006 0.0339,-0.005 0.041,0.002 0.007,0.007 -0.006,0.0122 -0.0281,0.0112 -0.0249,-10e-4 -0.03,-0.006 -0.0129,-0.0129 z m 0.10561,4.5e-4 c 0.0147,-0.006 0.0388,-0.006 0.0535,0 0.0147,0.006 0.003,0.0108 -0.0267,0.0108 -0.0294,0 -0.0415,-0.005 -0.0267,-0.0108 z m 0.31551,-0.009 c -0.0399,-0.0189 -0.0395,-0.0197 0.005,-0.0112 0.0265,0.005 0.0535,4.1e-4 0.0601,-0.0102 0.0177,-0.0286 0.0981,-0.0222 0.15919,0.0127 0.0511,0.0292 0.0483,0.0305 -0.0642,0.0298 -0.0647,-4.1e-4 -0.1369,-0.01 -0.16043,-0.0211 z m 1.16946,-0.0235 c 0.004,-0.0272 0.019,-0.0506 0.0337,-0.0521 0.0147,-0.001 0.0374,-0.004 0.0504,-0.005 0.013,-10e-4 0.0181,-0.0171 0.0114,-0.0348 -0.009,-0.0233 0.002,-0.0321 0.0418,-0.0321 0.0494,0 0.0535,0.007 0.0475,0.0802 -0.006,0.0781 -0.009,0.0804 -0.0992,0.0869 -0.086,0.006 -0.0921,0.003 -0.0856,-0.0428 z m -0.4208,-0.0601 c 0.007,-0.0118 0.0228,-0.0214 0.0346,-0.0214 0.0118,0 0.0154,0.01 0.008,0.0214 -0.007,0.0118 -0.0228,0.0214 -0.0346,0.0214 -0.0118,0 -0.0154,-0.01 -0.008,-0.0214 z m 0.13904,-10e-4 c 0,-0.0125 0.01,-0.0167 0.0214,-0.009 0.0118,0.007 0.0214,0.0175 0.0214,0.0227 0,0.005 -0.01,0.009 -0.0214,0.009 -0.0118,0 -0.0214,-0.0102 -0.0214,-0.0226 z m 8.12406,-0.003 c 0.02,-0.02 0.0314,-0.02 0.0513,0 0.02,0.02 0.0143,0.0257 -0.0257,0.0257 -0.0399,0 -0.0456,-0.006 -0.0257,-0.0257 z m -7.48636,-0.0745 c 0.0154,-0.006 0.0339,-0.005 0.041,0.002 0.007,0.007 -0.006,0.0122 -0.0281,0.0112 -0.0249,-0.001 -0.03,-0.006 -0.0129,-0.0129 z m 0.24506,-2.1e-4 c 0.0208,-0.005 0.0497,-0.005 0.0642,7.9e-4 0.0145,0.006 -0.003,0.0103 -0.0378,0.01 -0.0353,-4.3e-4 -0.0471,-0.005 -0.0263,-0.0106 z m 0.64756,-0.005 c -0.02,-0.0324 0.0275,-0.0485 0.0977,-0.0331 0.0509,0.0112 0.0747,0.004 0.10727,-0.0305 0.0555,-0.0596 0.16848,-0.0619 0.16848,-0.003 0,0.0478 -0.0468,0.0855 -0.0593,0.0478 -0.0122,-0.0366 -0.069,-0.0309 -0.069,0.007 0,0.0246 -0.0272,0.0321 -0.11639,0.0321 -0.064,0 -0.12192,-0.009 -0.12869,-0.0199 z m 0.44776,-0.002 c -0.009,-0.0146 0.006,-0.0172 0.0446,-0.008 0.0541,0.0136 0.0576,0.0105 0.0475,-0.0419 -0.007,-0.0367 -0.001,-0.0566 0.0159,-0.0566 0.0147,0 0.0309,0.0289 0.0361,0.0642 0.009,0.0601 0.005,0.0642 -0.0605,0.0642 -0.0384,0 -0.0761,-0.01 -0.0836,-0.0222 z m -0.88717,-0.0205 c 0,-0.0118 0.0102,-0.0214 0.0227,-0.0214 0.0125,0 0.0167,0.01 0.009,0.0214 -0.007,0.0118 -0.0175,0.0214 -0.0226,0.0214 -0.005,0 -0.009,-0.01 -0.009,-0.0214 z m 0.24599,-0.0214 c -0.0358,-0.0154 -0.0315,-0.0186 0.0267,-0.0199 0.0382,-8.2e-4 0.0695,0.008 0.0695,0.0199 0,0.0254 -0.0372,0.0254 -0.0962,0 z m 1.37567,-0.12156 c 0.0154,-0.006 0.0339,-0.005 0.041,0.002 0.007,0.007 -0.006,0.0122 -0.0281,0.0112 -0.0249,-0.001 -0.03,-0.006 -0.0129,-0.0129 z m 0.13413,0.007 c 0.0237,-0.0203 0.14886,-0.0326 0.13706,-0.0134 -0.007,0.0116 -0.0429,0.0211 -0.0795,0.0211 -0.0366,0 -0.0625,-0.003 -0.0576,-0.008 z m 0.26231,-0.0166 c 0.0283,-0.0165 0.0462,-0.0163 0.0631,6.5e-4 0.0172,0.0172 0.007,0.0234 -0.0395,0.023 -0.0553,-5.7e-4 -0.0582,-0.003 -0.0236,-0.0236 z m 0.14812,9e-4 c 0.0208,-0.0121 0.0323,-0.0311 0.0255,-0.0421 -0.007,-0.011 0.007,-0.0201 0.0316,-0.0201 0.0555,0 0.057,0.0344 0.003,0.0634 -0.0548,0.0293 -0.11026,0.0282 -0.0598,-10e-4 z m 0.25089,0.0149 c 0,-0.005 0.0144,-0.0139 0.0321,-0.0207 0.0176,-0.007 0.0321,-0.003 0.0321,0.008 0,0.0114 -0.0144,0.0207 -0.0321,0.0207 -0.0177,0 -0.0321,-0.004 -0.0321,-0.008 z m 0.38102,-0.006 c 0.0154,-0.006 0.0339,-0.005 0.041,0.002 0.007,0.007 -0.006,0.0122 -0.0281,0.0112 -0.0249,-10e-4 -0.03,-0.006 -0.0129,-0.0129 z m 0.27807,0 c 0.0154,-0.006 0.0339,-0.005 0.041,0.002 0.007,0.007 -0.006,0.0122 -0.0281,0.0112 -0.0249,-10e-4 -0.03,-0.006 -0.0129,-0.0129 z m 3.47677,-0.0216 c 0.002,-0.0247 -0.0103,-0.0376 -0.0343,-0.0357 -0.025,0.002 -0.0373,-0.0122 -0.0371,-0.0428 6.3e-4,-0.0881 0.0271,-0.10346 0.11483,-0.0668 0.0716,0.0299 0.0793,0.0406 0.0733,0.10209 -0.005,0.0563 -0.0168,0.0699 -0.0633,0.0753 -0.0437,0.005 -0.0559,-0.002 -0.0535,-0.0321 z m -3.90057,-0.008 c 0,-0.0125 0.01,-0.0167 0.0214,-0.009 0.0118,0.007 0.0214,0.0175 0.0214,0.0227 0,0.005 -0.01,0.009 -0.0214,0.009 -0.0118,0 -0.0214,-0.0102 -0.0214,-0.0226 z m 0.27808,-0.0843 c 0,-0.0118 0.01,-0.0214 0.0214,-0.0214 0.0118,0 0.0214,0.01 0.0214,0.0214 0,0.0118 -0.01,0.0214 -0.0214,0.0214 -0.0118,0 -0.0214,-0.01 -0.0214,-0.0214 z m 0.5615,-0.0575 c 0.0206,-0.005 0.0543,-0.005 0.0749,0 0.0206,0.005 0.004,0.01 -0.0374,0.01 -0.0412,0 -0.058,-0.004 -0.0374,-0.01 z m 0.86356,-0.007 c 0.0143,-0.0143 0.051,-0.015 0.10588,-0.002 l 0.084,0.0197 -0.10588,0.002 c -0.0721,0.001 -0.0989,-0.005 -0.084,-0.0197 z m 0.65793,-0.009 c -0.007,-0.0171 -0.006,-0.0405 0.001,-0.052 0.007,-0.0115 0.002,-0.0276 -0.0111,-0.0358 -0.0383,-0.0237 0.0231,-0.0516 0.11423,-0.052 0.0704,-2.9e-4 0.0802,0.006 0.0802,0.0508 0,0.0355 -0.0114,0.0502 -0.0374,0.0481 -0.0235,-0.002 -0.0363,0.011 -0.0345,0.0345 0.004,0.0469 -0.0948,0.0524 -0.11249,0.006 z m 1.12557,-0.0431 c 0,-0.0902 0.0434,-0.0844 0.0792,0.0106 0.0225,0.0596 0.0208,0.0636 -0.0276,0.0636 -0.0446,0 -0.0516,-0.01 -0.0516,-0.0742 z m -1.51872,0.01 c -0.0265,-0.0171 -0.0244,-0.0208 0.0118,-0.0211 0.0241,-1.8e-4 0.0554,-0.0119 0.0695,-0.026 0.02,-0.02 0.0257,-0.0181 0.0257,0.008 0,0.0187 -0.0152,0.0399 -0.0338,0.0471 -0.0412,0.0158 -0.0345,0.0166 -0.0731,-0.008 z m 0.21961,-2.8e-4 c -0.0318,-0.013 -0.0434,-0.0309 -0.0347,-0.0536 0.008,-0.0219 0.0255,-0.0288 0.0478,-0.0191 0.0191,0.008 0.0518,0.0157 0.0728,0.0165 0.0457,0.002 0.0402,0.0646 -0.006,0.0712 -0.0175,0.002 -0.0533,-0.004 -0.0796,-0.015 z m -0.5402,-0.0217 c 0.0391,-0.0247 0.0639,-0.0263 0.0639,-0.004 0,0.009 -0.0215,0.0185 -0.0478,0.0204 -0.0376,0.003 -0.0411,-7e-4 -0.0161,-0.0165 z m 1.58999,-0.10857 c 0.0493,-0.0116 0.10931,-0.0115 0.14974,2.2e-4 0.0564,0.0163 0.0429,0.0195 -0.0822,0.0193 -0.13583,-2e-4 -0.1421,-0.002 -0.0675,-0.0196 z"
         id="path26" /></g></g></svg>
